<?xml version="1.0" encoding="UTF-8" standalone="no"?>
<!DOCTYPE svg PUBLIC "-//W3C//DTD SVG 1.1//EN"
 "http://www.w3.org/Graphics/SVG/1.1/DTD/svg11.dtd">
<!-- Generated by graphviz version 8.0.5 (20230430.1635)
 -->
<!-- Pages: 1 -->
<svg width="1925pt" height="764pt"
 viewBox="0.00 0.00 1925.30 764.00" xmlns="http://www.w3.org/2000/svg" xmlns:xlink="http://www.w3.org/1999/xlink">
<g id="graph0" class="graph" transform="scale(1 1) rotate(0) translate(4 760)">
<polygon fill="white" stroke="none" points="-4,4 -4,-760 1921.3,-760 1921.3,4 -4,4"/>
<!-- Assisted Combo 3 (1) -->
<g id="node1" class="node">
<title>Assisted Combo 3 (1)</title>
<ellipse fill="none" stroke="black" cx="909.42" cy="-594" rx="93.48" ry="18"/>
<text text-anchor="middle" x="909.42" y="-588.58" font-family="Times New Roman,serif" font-size="14.00">Assisted Combo 3 (1)</text>
</g>
<!-- Axe Kick -->
<g id="node2" class="node">
<title>Axe Kick</title>
<ellipse fill="none" stroke="black" cx="906.42" cy="-522" rx="45.57" ry="18"/>
<text text-anchor="middle" x="906.42" y="-516.58" font-family="Times New Roman,serif" font-size="14.00">Axe Kick</text>
</g>
<!-- Assisted Combo 3 (1)&#45;&gt;Axe Kick -->
<g id="edge1" class="edge">
<title>Assisted Combo 3 (1)&#45;&gt;Axe Kick</title>
<path fill="none" stroke="black" d="M908.68,-575.7C908.36,-568.24 907.97,-559.32 907.62,-550.97"/>
<polygon fill="black" stroke="black" points="911.08,-550.95 907.15,-541.1 904.08,-551.25 911.08,-550.95"/>
</g>
<!-- Assisted Combo 3 (2) -->
<g id="node11" class="node">
<title>Assisted Combo 3 (2)</title>
<ellipse fill="none" stroke="black" cx="1219.42" cy="-522" rx="93.48" ry="18"/>
<text text-anchor="middle" x="1219.42" y="-516.58" font-family="Times New Roman,serif" font-size="14.00">Assisted Combo 3 (2)</text>
</g>
<!-- Assisted Combo 3 (1)&#45;&gt;Assisted Combo 3 (2) -->
<g id="edge8" class="edge">
<title>Assisted Combo 3 (1)&#45;&gt;Assisted Combo 3 (2)</title>
<path fill="none" stroke="black" d="M968.46,-579.67C1020.09,-568.01 1095.14,-551.06 1149.71,-538.74"/>
<polygon fill="black" stroke="black" points="1150.35,-541.96 1159.34,-536.34 1148.81,-535.13 1150.35,-541.96"/>
</g>
<!-- OD High Blade Kick -->
<g id="node3" class="node">
<title>OD High Blade Kick</title>
<ellipse fill="none" stroke="black" cx="905.42" cy="-450" rx="87.49" ry="18"/>
<text text-anchor="middle" x="905.42" y="-444.57" font-family="Times New Roman,serif" font-size="14.00">OD High Blade Kick</text>
</g>
<!-- Axe Kick&#45;&gt;OD High Blade Kick -->
<g id="edge2" class="edge">
<title>Axe Kick&#45;&gt;OD High Blade Kick</title>
<path fill="none" stroke="black" d="M906.17,-503.7C906.06,-496.24 905.94,-487.32 905.82,-478.97"/>
<polygon fill="black" stroke="black" points="909.31,-479.05 905.66,-469.1 902.31,-479.15 909.31,-479.05"/>
</g>
<!-- Hashogeki (While Buffed) -->
<g id="node4" class="node">
<title>Hashogeki (While Buffed)</title>
<ellipse fill="none" stroke="black" cx="1079.42" cy="-90" rx="107.45" ry="18"/>
<text text-anchor="middle" x="1079.42" y="-84.58" font-family="Times New Roman,serif" font-size="14.00">Hashogeki (While Buffed)</text>
</g>
<!-- OD High Blade Kick&#45;&gt;Hashogeki (While Buffed) -->
<g id="edge3" class="edge">
<title>OD High Blade Kick&#45;&gt;Hashogeki (While Buffed)</title>
<path fill="none" stroke="black" d="M957.65,-435.14C1014.8,-416.43 1098.42,-377.09 1098.42,-307 1098.42,-307 1098.42,-307 1098.42,-233 1098.42,-193.21 1091,-147.71 1085.43,-119.16"/>
<polygon fill="black" stroke="black" points="1088.67,-118.5 1083.26,-109.39 1081.81,-119.88 1088.67,-118.5"/>
</g>
<!-- Shoryuken -->
<g id="node23" class="node">
<title>Shoryuken</title>
<ellipse fill="none" stroke="black" cx="399.42" cy="-90" rx="50.56" ry="18"/>
<text text-anchor="middle" x="399.42" y="-84.58" font-family="Times New Roman,serif" font-size="14.00">Shoryuken</text>
</g>
<!-- OD High Blade Kick&#45;&gt;Shoryuken -->
<g id="edge21" class="edge">
<title>OD High Blade Kick&#45;&gt;Shoryuken</title>
<path fill="none" stroke="black" d="M825.06,-442.62C684.88,-429.26 410.42,-392.21 410.42,-307 410.42,-307 410.42,-307 410.42,-233 410.42,-193.45 406.12,-147.88 402.9,-119.26"/>
<polygon fill="black" stroke="black" points="406.28,-118.98 401.64,-109.45 399.32,-119.79 406.28,-118.98"/>
</g>
<!-- Shin Hashogeki -->
<g id="node31" class="node">
<title>Shin Hashogeki</title>
<ellipse fill="none" stroke="black" cx="905.42" cy="-378" rx="68.53" ry="18"/>
<text text-anchor="middle" x="905.42" y="-372.57" font-family="Times New Roman,serif" font-size="14.00">Shin Hashogeki</text>
</g>
<!-- OD High Blade Kick&#45;&gt;Shin Hashogeki -->
<g id="edge32" class="edge">
<title>OD High Blade Kick&#45;&gt;Shin Hashogeki</title>
<path fill="none" stroke="black" d="M905.42,-431.7C905.42,-424.24 905.42,-415.32 905.42,-406.97"/>
<polygon fill="black" stroke="black" points="908.92,-407.1 905.42,-397.1 901.92,-407.1 908.92,-407.1"/>
</g>
<!-- Parry Drive Rush -->
<g id="node32" class="node">
<title>Parry Drive Rush</title>
<ellipse fill="none" stroke="black" cx="634.42" cy="-378" rx="75.02" ry="18"/>
<text text-anchor="middle" x="634.42" y="-372.57" font-family="Times New Roman,serif" font-size="14.00">Parry Drive Rush</text>
</g>
<!-- OD High Blade Kick&#45;&gt;Parry Drive Rush -->
<g id="edge43" class="edge">
<title>OD High Blade Kick&#45;&gt;Parry Drive Rush</title>
<path fill="none" stroke="black" d="M852.52,-435.34C807.13,-423.61 741.73,-406.72 694.4,-394.49"/>
<polygon fill="black" stroke="black" points="695.54,-390.91 684.98,-391.8 693.79,-397.69 695.54,-390.91"/>
</g>
<!-- High Blade Kick -->
<g id="node5" class="node">
<title>High Blade Kick</title>
<ellipse fill="none" stroke="black" cx="1112.42" cy="-18" rx="71.52" ry="18"/>
<text text-anchor="middle" x="1112.42" y="-12.57" font-family="Times New Roman,serif" font-size="14.00">High Blade Kick</text>
</g>
<!-- Hashogeki (While Buffed)&#45;&gt;High Blade Kick -->
<g id="edge4" class="edge">
<title>Hashogeki (While Buffed)&#45;&gt;High Blade Kick</title>
<path fill="none" stroke="black" d="M1087.58,-71.7C1091.25,-63.9 1095.68,-54.51 1099.77,-45.83"/>
<polygon fill="black" stroke="black" points="1103.26,-47.64 1104.35,-37.1 1096.92,-44.66 1103.26,-47.64"/>
</g>
<!-- Tatsumaki Senpu&#45;kyaku -->
<g id="node19" class="node">
<title>Tatsumaki Senpu&#45;kyaku</title>
<ellipse fill="none" stroke="black" cx="919.42" cy="-18" rx="99.97" ry="18"/>
<text text-anchor="middle" x="919.42" y="-12.57" font-family="Times New Roman,serif" font-size="14.00">Tatsumaki Senpu&#45;kyaku</text>
</g>
<!-- Hashogeki (While Buffed)&#45;&gt;Tatsumaki Senpu&#45;kyaku -->
<g id="edge26" class="edge">
<title>Hashogeki (While Buffed)&#45;&gt;Tatsumaki Senpu&#45;kyaku</title>
<path fill="none" stroke="black" d="M1042.31,-72.76C1019.69,-62.87 990.58,-50.13 966.37,-39.54"/>
<polygon fill="black" stroke="black" points="967.89,-35.95 957.33,-35.15 965.09,-42.36 967.89,-35.95"/>
</g>
<!-- Assisted Combo 1 (1) -->
<g id="node6" class="node">
<title>Assisted Combo 1 (1)</title>
<ellipse fill="none" stroke="black" cx="1097.42" cy="-738" rx="93.48" ry="18"/>
<text text-anchor="middle" x="1097.42" y="-732.58" font-family="Times New Roman,serif" font-size="14.00">Assisted Combo 1 (1)</text>
</g>
<!-- Assisted Combo 1 (2) -->
<g id="node7" class="node">
<title>Assisted Combo 1 (2)</title>
<ellipse fill="none" stroke="black" cx="1097.42" cy="-666" rx="93.48" ry="18"/>
<text text-anchor="middle" x="1097.42" y="-660.58" font-family="Times New Roman,serif" font-size="14.00">Assisted Combo 1 (2)</text>
</g>
<!-- Assisted Combo 1 (1)&#45;&gt;Assisted Combo 1 (2) -->
<g id="edge5" class="edge">
<title>Assisted Combo 1 (1)&#45;&gt;Assisted Combo 1 (2)</title>
<path fill="none" stroke="black" d="M1097.42,-719.7C1097.42,-712.24 1097.42,-703.32 1097.42,-694.97"/>
<polygon fill="black" stroke="black" points="1100.92,-695.1 1097.42,-685.1 1093.92,-695.1 1100.92,-695.1"/>
</g>
<!-- Assisted Combo 2 (1) -->
<g id="node8" class="node">
<title>Assisted Combo 2 (1)</title>
<ellipse fill="none" stroke="black" cx="1302.42" cy="-738" rx="93.48" ry="18"/>
<text text-anchor="middle" x="1302.42" y="-732.58" font-family="Times New Roman,serif" font-size="14.00">Assisted Combo 2 (1)</text>
</g>
<!-- Assisted Combo 2 (2) -->
<g id="node9" class="node">
<title>Assisted Combo 2 (2)</title>
<ellipse fill="none" stroke="black" cx="1302.42" cy="-666" rx="93.48" ry="18"/>
<text text-anchor="middle" x="1302.42" y="-660.58" font-family="Times New Roman,serif" font-size="14.00">Assisted Combo 2 (2)</text>
</g>
<!-- Assisted Combo 2 (1)&#45;&gt;Assisted Combo 2 (2) -->
<g id="edge6" class="edge">
<title>Assisted Combo 2 (1)&#45;&gt;Assisted Combo 2 (2)</title>
<path fill="none" stroke="black" d="M1302.42,-719.7C1302.42,-712.24 1302.42,-703.32 1302.42,-694.97"/>
<polygon fill="black" stroke="black" points="1305.92,-695.1 1302.42,-685.1 1298.92,-695.1 1305.92,-695.1"/>
</g>
<!-- Assisted Combo 2 (3) -->
<g id="node10" class="node">
<title>Assisted Combo 2 (3)</title>
<ellipse fill="none" stroke="black" cx="1302.42" cy="-594" rx="93.48" ry="18"/>
<text text-anchor="middle" x="1302.42" y="-588.58" font-family="Times New Roman,serif" font-size="14.00">Assisted Combo 2 (3)</text>
</g>
<!-- Assisted Combo 2 (2)&#45;&gt;Assisted Combo 2 (3) -->
<g id="edge7" class="edge">
<title>Assisted Combo 2 (2)&#45;&gt;Assisted Combo 2 (3)</title>
<path fill="none" stroke="black" d="M1302.42,-647.7C1302.42,-640.24 1302.42,-631.32 1302.42,-622.97"/>
<polygon fill="black" stroke="black" points="1305.92,-623.1 1302.42,-613.1 1298.92,-623.1 1305.92,-623.1"/>
</g>
<!-- Assisted Combo 3 (2)&#45;&gt;High Blade Kick -->
<g id="edge18" class="edge">
<title>Assisted Combo 3 (2)&#45;&gt;High Blade Kick</title>
<path fill="none" stroke="black" d="M1267.6,-506.21C1287.04,-497.93 1308,-485.62 1321.42,-468 1345.93,-435.82 1340.42,-419.45 1340.42,-379 1340.42,-379 1340.42,-379 1340.42,-161 1340.42,-84.98 1247.95,-48.19 1180.79,-31.5"/>
<polygon fill="black" stroke="black" points="1181.79,-27.9 1171.25,-28.99 1180.17,-34.71 1181.79,-27.9"/>
</g>
<!-- Assisted Combo 3 (3) -->
<g id="node12" class="node">
<title>Assisted Combo 3 (3)</title>
<ellipse fill="none" stroke="black" cx="1219.42" cy="-450" rx="93.48" ry="18"/>
<text text-anchor="middle" x="1219.42" y="-444.57" font-family="Times New Roman,serif" font-size="14.00">Assisted Combo 3 (3)</text>
</g>
<!-- Assisted Combo 3 (2)&#45;&gt;Assisted Combo 3 (3) -->
<g id="edge9" class="edge">
<title>Assisted Combo 3 (2)&#45;&gt;Assisted Combo 3 (3)</title>
<path fill="none" stroke="black" d="M1219.42,-503.7C1219.42,-496.24 1219.42,-487.32 1219.42,-478.97"/>
<polygon fill="black" stroke="black" points="1222.92,-479.1 1219.42,-469.1 1215.92,-479.1 1222.92,-479.1"/>
</g>
<!-- Assisted Combo 3 (4) -->
<g id="node13" class="node">
<title>Assisted Combo 3 (4)</title>
<ellipse fill="none" stroke="black" cx="1219.42" cy="-378" rx="93.48" ry="18"/>
<text text-anchor="middle" x="1219.42" y="-372.57" font-family="Times New Roman,serif" font-size="14.00">Assisted Combo 3 (4)</text>
</g>
<!-- Assisted Combo 3 (3)&#45;&gt;Assisted Combo 3 (4) -->
<g id="edge10" class="edge">
<title>Assisted Combo 3 (3)&#45;&gt;Assisted Combo 3 (4)</title>
<path fill="none" stroke="black" d="M1219.42,-431.7C1219.42,-424.24 1219.42,-415.32 1219.42,-406.97"/>
<polygon fill="black" stroke="black" points="1222.92,-407.1 1219.42,-397.1 1215.92,-407.1 1222.92,-407.1"/>
</g>
<!-- Jumping Heavy Attack -->
<g id="node14" class="node">
<title>Jumping Heavy Attack</title>
<ellipse fill="none" stroke="black" cx="704.42" cy="-234" rx="94.48" ry="18"/>
<text text-anchor="middle" x="704.42" y="-228.57" font-family="Times New Roman,serif" font-size="14.00">Jumping Heavy Attack</text>
</g>
<!-- Low Spinning Sweep -->
<g id="node15" class="node">
<title>Low Spinning Sweep</title>
<ellipse fill="none" stroke="black" cx="722.42" cy="-162" rx="89.99" ry="18"/>
<text text-anchor="middle" x="722.42" y="-156.57" font-family="Times New Roman,serif" font-size="14.00">Low Spinning Sweep</text>
</g>
<!-- Jumping Heavy Attack&#45;&gt;Low Spinning Sweep -->
<g id="edge11" class="edge">
<title>Jumping Heavy Attack&#45;&gt;Low Spinning Sweep</title>
<path fill="none" stroke="black" d="M708.87,-215.7C710.81,-208.15 713.13,-199.12 715.3,-190.68"/>
<polygon fill="black" stroke="black" points="718.92,-191.66 718.02,-181.1 712.14,-189.92 718.92,-191.66"/>
</g>
<!-- Heavy Attack -->
<g id="node18" class="node">
<title>Heavy Attack</title>
<ellipse fill="none" stroke="black" cx="891.42" cy="-162" rx="61.04" ry="18"/>
<text text-anchor="middle" x="891.42" y="-156.57" font-family="Times New Roman,serif" font-size="14.00">Heavy Attack</text>
</g>
<!-- Jumping Heavy Attack&#45;&gt;Heavy Attack -->
<g id="edge17" class="edge">
<title>Jumping Heavy Attack&#45;&gt;Heavy Attack</title>
<path fill="none" stroke="black" d="M745.92,-217.46C775.21,-206.5 814.49,-191.8 844.85,-180.43"/>
<polygon fill="black" stroke="black" points="845.64,-183.5 853.78,-176.72 843.18,-176.94 845.64,-183.5"/>
</g>
<!-- Crouching Medium Attack -->
<g id="node16" class="node">
<title>Crouching Medium Attack</title>
<ellipse fill="none" stroke="black" cx="474.42" cy="-738" rx="109.45" ry="18"/>
<text text-anchor="middle" x="474.42" y="-732.58" font-family="Times New Roman,serif" font-size="14.00">Crouching Medium Attack</text>
</g>
<!-- Crouching Medium Attack&#45;&gt;OD High Blade Kick -->
<g id="edge20" class="edge">
<title>Crouching Medium Attack&#45;&gt;OD High Blade Kick</title>
<path fill="none" stroke="black" d="M499.77,-720.18C573.44,-671.29 787.55,-529.22 871.28,-473.65"/>
<polygon fill="black" stroke="black" points="872.97,-476.07 879.37,-467.62 869.1,-470.24 872.97,-476.07"/>
</g>
<!-- Hadoken -->
<g id="node17" class="node">
<title>Hadoken</title>
<ellipse fill="none" stroke="black" cx="308.42" cy="-666" rx="44.08" ry="18"/>
<text text-anchor="middle" x="308.42" y="-660.58" font-family="Times New Roman,serif" font-size="14.00">Hadoken</text>
</g>
<!-- Crouching Medium Attack&#45;&gt;Hadoken -->
<g id="edge12" class="edge">
<title>Crouching Medium Attack&#45;&gt;Hadoken</title>
<path fill="none" stroke="black" d="M435.92,-720.76C409.71,-709.71 375.09,-695.11 348.54,-683.92"/>
<polygon fill="black" stroke="black" points="350.01,-680.32 339.43,-679.66 347.29,-686.77 350.01,-680.32"/>
</g>
<!-- OD Tatsumaki Senpu&#45;kyaku -->
<g id="node27" class="node">
<title>OD Tatsumaki Senpu&#45;kyaku</title>
<ellipse fill="none" stroke="black" cx="576.42" cy="-450" rx="115.93" ry="18"/>
<text text-anchor="middle" x="576.42" y="-444.57" font-family="Times New Roman,serif" font-size="14.00">OD Tatsumaki Senpu&#45;kyaku</text>
</g>
<!-- Crouching Medium Attack&#45;&gt;OD Tatsumaki Senpu&#45;kyaku -->
<g id="edge39" class="edge">
<title>Crouching Medium Attack&#45;&gt;OD Tatsumaki Senpu&#45;kyaku</title>
<path fill="none" stroke="black" d="M483.81,-719.76C489.02,-709.59 495.27,-696.34 499.42,-684 525.48,-606.5 503.99,-578.62 537.42,-504 541.74,-494.35 548.03,-484.76 554.31,-476.43"/>
<polygon fill="black" stroke="black" points="557.55,-478.97 561.01,-468.96 552.06,-474.63 557.55,-478.97"/>
</g>
<!-- Cancel Drive Rush -->
<g id="node28" class="node">
<title>Cancel Drive Rush</title>
<ellipse fill="none" stroke="black" cx="859.42" cy="-666" rx="80.5" ry="18"/>
<text text-anchor="middle" x="859.42" y="-660.58" font-family="Times New Roman,serif" font-size="14.00">Cancel Drive Rush</text>
</g>
<!-- Crouching Medium Attack&#45;&gt;Cancel Drive Rush -->
<g id="edge27" class="edge">
<title>Crouching Medium Attack&#45;&gt;Cancel Drive Rush</title>
<path fill="none" stroke="black" d="M545.93,-724C614.87,-711.46 718.64,-692.6 787.66,-680.05"/>
<polygon fill="black" stroke="black" points="788.22,-683.32 797.43,-678.09 786.97,-676.43 788.22,-683.32"/>
</g>
<!-- OD Hashogeki (While Buffed) -->
<g id="node37" class="node">
<title>OD Hashogeki (While Buffed)</title>
<ellipse fill="none" stroke="black" cx="123.42" cy="-666" rx="123.42" ry="18"/>
<text text-anchor="middle" x="123.42" y="-660.58" font-family="Times New Roman,serif" font-size="14.00">OD Hashogeki (While Buffed)</text>
</g>
<!-- Crouching Medium Attack&#45;&gt;OD Hashogeki (While Buffed) -->
<g id="edge46" class="edge">
<title>Crouching Medium Attack&#45;&gt;OD Hashogeki (While Buffed)</title>
<path fill="none" stroke="black" d="M406.74,-723.5C349.02,-711.99 265.9,-695.41 204.61,-683.19"/>
<polygon fill="black" stroke="black" points="205.69,-679.64 195.2,-681.12 204.32,-686.5 205.69,-679.64"/>
</g>
<!-- OD Hadoken -->
<g id="node39" class="node">
<title>OD Hadoken</title>
<ellipse fill="none" stroke="black" cx="430.42" cy="-666" rx="60.05" ry="18"/>
<text text-anchor="middle" x="430.42" y="-660.58" font-family="Times New Roman,serif" font-size="14.00">OD Hadoken</text>
</g>
<!-- Crouching Medium Attack&#45;&gt;OD Hadoken -->
<g id="edge49" class="edge">
<title>Crouching Medium Attack&#45;&gt;OD Hadoken</title>
<path fill="none" stroke="black" d="M463.54,-719.7C458.53,-711.73 452.48,-702.1 446.93,-693.26"/>
<polygon fill="black" stroke="black" points="449.45,-691.71 441.17,-685.1 443.53,-695.43 449.45,-691.71"/>
</g>
<!-- Heavy Attack&#45;&gt;OD High Blade Kick -->
<g id="edge31" class="edge">
<title>Heavy Attack&#45;&gt;OD High Blade Kick</title>
<path fill="none" stroke="black" d="M949.97,-167.64C982.62,-173.58 1020.77,-186.8 1041.42,-216 1089.95,-284.62 1036.17,-330.56 983.42,-396 973.5,-408.31 959.96,-418.87 946.95,-427.26"/>
<polygon fill="black" stroke="black" points="945.33,-424.76 938.63,-432.97 948.99,-430.73 945.33,-424.76"/>
</g>
<!-- Heavy Attack&#45;&gt;Hashogeki (While Buffed) -->
<g id="edge25" class="edge">
<title>Heavy Attack&#45;&gt;Hashogeki (While Buffed)</title>
<path fill="none" stroke="black" d="M928.11,-147.34C956.17,-136.89 995.25,-122.34 1026.66,-110.64"/>
<polygon fill="black" stroke="black" points="1027.41,-113.73 1035.56,-106.96 1024.97,-107.17 1027.41,-113.73"/>
</g>
<!-- Heavy Attack&#45;&gt;Tatsumaki Senpu&#45;kyaku -->
<g id="edge13" class="edge">
<title>Heavy Attack&#45;&gt;Tatsumaki Senpu&#45;kyaku</title>
<path fill="none" stroke="black" d="M894.85,-143.59C899.62,-119.4 908.3,-75.36 913.97,-46.65"/>
<polygon fill="black" stroke="black" points="917.54,-47.6 916.04,-37.11 910.68,-46.24 917.54,-47.6"/>
</g>
<!-- Heavy Attack&#45;&gt;Shoryuken -->
<g id="edge16" class="edge">
<title>Heavy Attack&#45;&gt;Shoryuken</title>
<path fill="none" stroke="black" d="M847.18,-149.27C838.67,-147.29 829.8,-145.43 821.42,-144 661.59,-116.8 617.63,-138.57 458.42,-108 454.58,-107.26 450.63,-106.39 446.68,-105.43"/>
<polygon fill="black" stroke="black" points="447.87,-101.86 437.31,-102.74 446.11,-108.64 447.87,-101.86"/>
</g>
<!-- Shinku Hadoken -->
<g id="node30" class="node">
<title>Shinku Hadoken</title>
<ellipse fill="none" stroke="black" cx="758.42" cy="-90" rx="72.02" ry="18"/>
<text text-anchor="middle" x="758.42" y="-84.58" font-family="Times New Roman,serif" font-size="14.00">Shinku Hadoken</text>
</g>
<!-- Heavy Attack&#45;&gt;Shinku Hadoken -->
<g id="edge30" class="edge">
<title>Heavy Attack&#45;&gt;Shinku Hadoken</title>
<path fill="none" stroke="black" d="M862.56,-145.81C843.56,-135.81 818.46,-122.6 797.66,-111.65"/>
<polygon fill="black" stroke="black" points="799.62,-108.2 789.14,-106.64 796.36,-114.4 799.62,-108.2"/>
</g>
<!-- Drive Impact (Punish Counter) -->
<g id="node20" class="node">
<title>Drive Impact (Punish Counter)</title>
<ellipse fill="none" stroke="black" cx="1538.42" cy="-738" rx="124.92" ry="18"/>
<text text-anchor="middle" x="1538.42" y="-732.58" font-family="Times New Roman,serif" font-size="14.00">Drive Impact (Punish Counter)</text>
</g>
<!-- High Double Strike -->
<g id="node21" class="node">
<title>High Double Strike</title>
<ellipse fill="none" stroke="black" cx="1538.42" cy="-666" rx="81.5" ry="18"/>
<text text-anchor="middle" x="1538.42" y="-660.58" font-family="Times New Roman,serif" font-size="14.00">High Double Strike</text>
</g>
<!-- Drive Impact (Punish Counter)&#45;&gt;High Double Strike -->
<g id="edge14" class="edge">
<title>Drive Impact (Punish Counter)&#45;&gt;High Double Strike</title>
<path fill="none" stroke="black" d="M1538.42,-719.7C1538.42,-712.24 1538.42,-703.32 1538.42,-694.97"/>
<polygon fill="black" stroke="black" points="1541.92,-695.1 1538.42,-685.1 1534.92,-695.1 1541.92,-695.1"/>
</g>
<!-- Drive Impact (Block) -->
<g id="node22" class="node">
<title>Drive Impact (Block)</title>
<ellipse fill="none" stroke="black" cx="943.42" cy="-234" rx="89.49" ry="18"/>
<text text-anchor="middle" x="943.42" y="-228.57" font-family="Times New Roman,serif" font-size="14.00">Drive Impact (Block)</text>
</g>
<!-- Drive Impact (Block)&#45;&gt;Heavy Attack -->
<g id="edge15" class="edge">
<title>Drive Impact (Block)&#45;&gt;Heavy Attack</title>
<path fill="none" stroke="black" d="M930.56,-215.7C924.43,-207.44 916.97,-197.39 910.21,-188.3"/>
<polygon fill="black" stroke="black" points="912.54,-186.56 903.77,-180.62 906.92,-190.74 912.54,-186.56"/>
</g>
<!-- Whirlwind Kick -->
<g id="node24" class="node">
<title>Whirlwind Kick</title>
<ellipse fill="none" stroke="black" cx="1777.42" cy="-738" rx="69.03" ry="18"/>
<text text-anchor="middle" x="1777.42" y="-732.58" font-family="Times New Roman,serif" font-size="14.00">Whirlwind Kick</text>
</g>
<!-- OD Aerial Tatsumaki Senpu&#45;kyaku -->
<g id="node25" class="node">
<title>OD Aerial Tatsumaki Senpu&#45;kyaku</title>
<ellipse fill="none" stroke="black" cx="1777.42" cy="-666" rx="139.89" ry="18"/>
<text text-anchor="middle" x="1777.42" y="-660.58" font-family="Times New Roman,serif" font-size="14.00">OD Aerial Tatsumaki Senpu&#45;kyaku</text>
</g>
<!-- Whirlwind Kick&#45;&gt;OD Aerial Tatsumaki Senpu&#45;kyaku -->
<g id="edge19" class="edge">
<title>Whirlwind Kick&#45;&gt;OD Aerial Tatsumaki Senpu&#45;kyaku</title>
<path fill="none" stroke="black" d="M1777.42,-719.7C1777.42,-712.24 1777.42,-703.32 1777.42,-694.97"/>
<polygon fill="black" stroke="black" points="1780.92,-695.1 1777.42,-685.1 1773.92,-695.1 1780.92,-695.1"/>
</g>
<!-- Crouching Light Attack -->
<g id="node26" class="node">
<title>Crouching Light Attack</title>
<ellipse fill="none" stroke="black" cx="644.42" cy="-522" rx="97.97" ry="18"/>
<text text-anchor="middle" x="644.42" y="-516.58" font-family="Times New Roman,serif" font-size="14.00">Crouching Light Attack</text>
</g>
<!-- Crouching Light Attack&#45;&gt;Crouching Light Attack -->
<g id="edge22" class="edge">
<title>Crouching Light Attack&#45;&gt;Crouching Light Attack</title>
<path fill="none" stroke="black" d="M712.03,-535.44C738.41,-536.08 760.39,-531.6 760.39,-522 760.39,-513.75 744.15,-509.28 722.85,-508.59"/>
<polygon fill="black" stroke="black" points="723.04,-505.09 713.03,-508.56 723.02,-512.09 723.04,-505.09"/>
</g>
<!-- Crouching Light Attack&#45;&gt;OD Tatsumaki Senpu&#45;kyaku -->
<g id="edge23" class="edge">
<title>Crouching Light Attack&#45;&gt;OD Tatsumaki Senpu&#45;kyaku</title>
<path fill="none" stroke="black" d="M627.96,-504.05C619.81,-495.67 609.81,-485.38 600.8,-476.1"/>
<polygon fill="black" stroke="black" points="603.68,-474.01 594.2,-469.28 598.66,-478.89 603.68,-474.01"/>
</g>
<!-- OD Tatsumaki Senpu&#45;kyaku&#45;&gt;Shoryuken -->
<g id="edge24" class="edge">
<title>OD Tatsumaki Senpu&#45;kyaku&#45;&gt;Shoryuken</title>
<path fill="none" stroke="black" d="M480.86,-439.45C450.34,-431.95 418.73,-418.83 396.42,-396 367.78,-366.7 372.42,-347.97 372.42,-307 372.42,-307 372.42,-307 372.42,-233 372.42,-192.68 383.05,-147.04 390.97,-118.63"/>
<polygon fill="black" stroke="black" points="394.55,-119.87 393.95,-109.29 387.82,-117.93 394.55,-119.87"/>
</g>
<!-- OD Tatsumaki Senpu&#45;kyaku&#45;&gt;Parry Drive Rush -->
<g id="edge40" class="edge">
<title>OD Tatsumaki Senpu&#45;kyaku&#45;&gt;Parry Drive Rush</title>
<path fill="none" stroke="black" d="M590.76,-431.7C597.57,-423.47 605.85,-413.48 613.36,-404.42"/>
<polygon fill="black" stroke="black" points="616.56,-407.04 620.25,-397.1 611.17,-402.57 616.56,-407.04"/>
</g>
<!-- Cancel Drive Rush&#45;&gt;Assisted Combo 3 (1) -->
<g id="edge38" class="edge">
<title>Cancel Drive Rush&#45;&gt;Assisted Combo 3 (1)</title>
<path fill="none" stroke="black" d="M871.52,-648.05C877.27,-640.01 884.27,-630.2 890.69,-621.23"/>
<polygon fill="black" stroke="black" points="894.11,-623.45 897.08,-613.28 888.42,-619.38 894.11,-623.45"/>
</g>
<!-- Medium Attack -->
<g id="node29" class="node">
<title>Medium Attack</title>
<ellipse fill="none" stroke="black" cx="523.42" cy="-234" rx="68.03" ry="18"/>
<text text-anchor="middle" x="523.42" y="-228.57" font-family="Times New Roman,serif" font-size="14.00">Medium Attack</text>
</g>
<!-- Cancel Drive Rush&#45;&gt;Medium Attack -->
<g id="edge28" class="edge">
<title>Cancel Drive Rush&#45;&gt;Medium Attack</title>
<path fill="none" stroke="black" d="M837.97,-648.26C827.22,-638.75 814.92,-625.97 807.42,-612 788.27,-576.37 788.42,-563.45 788.42,-523 788.42,-523 788.42,-523 788.42,-377 788.42,-329.42 654.02,-277.59 576.64,-251.7"/>
<polygon fill="black" stroke="black" points="578.18,-248.19 567.58,-248.37 575.98,-254.83 578.18,-248.19"/>
</g>
<!-- Medium Attack&#45;&gt;Heavy Attack -->
<g id="edge29" class="edge">
<title>Medium Attack&#45;&gt;Heavy Attack</title>
<path fill="none" stroke="black" d="M573.69,-221.64C582.9,-219.67 592.43,-217.71 601.42,-216 698.74,-197.44 724.32,-199.71 821.42,-180 826.09,-179.05 830.93,-178.01 835.78,-176.92"/>
<polygon fill="black" stroke="black" points="836.39,-180.14 845.34,-174.48 834.81,-173.32 836.39,-180.14"/>
</g>
<!-- (Medium) Hashogeki -->
<g id="node34" class="node">
<title>(Medium) Hashogeki</title>
<ellipse fill="none" stroke="black" cx="526.42" cy="-162" rx="88.49" ry="18"/>
<text text-anchor="middle" x="526.42" y="-156.57" font-family="Times New Roman,serif" font-size="14.00">(Medium) Hashogeki</text>
</g>
<!-- Medium Attack&#45;&gt;(Medium) Hashogeki -->
<g id="edge35" class="edge">
<title>Medium Attack&#45;&gt;(Medium) Hashogeki</title>
<path fill="none" stroke="black" d="M524.16,-215.7C524.48,-208.24 524.86,-199.32 525.22,-190.97"/>
<polygon fill="black" stroke="black" points="528.75,-191.25 525.69,-181.1 521.76,-190.95 528.75,-191.25"/>
</g>
<!-- Parry Drive Rush&#45;&gt;Heavy Attack -->
<g id="edge44" class="edge">
<title>Parry Drive Rush&#45;&gt;Heavy Attack</title>
<path fill="none" stroke="black" d="M659.88,-360.8C694.64,-338.2 758.25,-295.12 807.42,-252 830.17,-232.04 853.61,-206.74 869.93,-188.22"/>
<polygon fill="black" stroke="black" points="873.18,-190.82 877.11,-180.98 867.9,-186.22 873.18,-190.82"/>
</g>
<!-- Parry Drive Rush&#45;&gt;Medium Attack -->
<g id="edge41" class="edge">
<title>Parry Drive Rush&#45;&gt;Medium Attack</title>
<path fill="none" stroke="black" d="M634.75,-359.6C634.26,-340.33 630.85,-309.2 615.42,-288 604.73,-273.31 588.63,-262.08 572.88,-253.82"/>
<polygon fill="black" stroke="black" points="574.69,-250.32 564.17,-249.05 571.61,-256.6 574.69,-250.32"/>
</g>
<!-- Collarbone Breaker -->
<g id="node33" class="node">
<title>Collarbone Breaker</title>
<ellipse fill="none" stroke="black" cx="523.42" cy="-306" rx="82.5" ry="18"/>
<text text-anchor="middle" x="523.42" y="-300.57" font-family="Times New Roman,serif" font-size="14.00">Collarbone Breaker</text>
</g>
<!-- Parry Drive Rush&#45;&gt;Collarbone Breaker -->
<g id="edge33" class="edge">
<title>Parry Drive Rush&#45;&gt;Collarbone Breaker</title>
<path fill="none" stroke="black" d="M608.67,-360.76C593.79,-351.38 574.85,-339.44 558.61,-329.19"/>
<polygon fill="black" stroke="black" points="560.73,-325.76 550.41,-323.39 557,-331.68 560.73,-325.76"/>
</g>
<!-- Collarbone Breaker&#45;&gt;Medium Attack -->
<g id="edge34" class="edge">
<title>Collarbone Breaker&#45;&gt;Medium Attack</title>
<path fill="none" stroke="black" d="M523.42,-287.7C523.42,-280.24 523.42,-271.32 523.42,-262.97"/>
<polygon fill="black" stroke="black" points="526.92,-263.1 523.42,-253.1 519.92,-263.1 526.92,-263.1"/>
</g>
<!-- (Medium) Hashogeki&#45;&gt;Shoryuken -->
<g id="edge42" class="edge">
<title>(Medium) Hashogeki&#45;&gt;Shoryuken</title>
<path fill="none" stroke="black" d="M496.64,-144.59C478.33,-134.49 454.74,-121.49 435.39,-110.83"/>
<polygon fill="black" stroke="black" points="437.43,-107.41 426.99,-105.64 434.05,-113.54 437.43,-107.41"/>
</g>
<!-- (Medium) Hashogeki&#45;&gt;Shinku Hadoken -->
<g id="edge45" class="edge">
<title>(Medium) Hashogeki&#45;&gt;Shinku Hadoken</title>
<path fill="none" stroke="black" d="M574.49,-146.5C611.93,-135.2 663.96,-119.5 703.13,-107.68"/>
<polygon fill="black" stroke="black" points="703.99,-110.78 712.56,-104.54 701.97,-104.07 703.99,-110.78"/>
</g>
<!-- Shin Shoryuken -->
<g id="node35" class="node">
<title>Shin Shoryuken</title>
<ellipse fill="none" stroke="black" cx="537.42" cy="-90" rx="69.53" ry="18"/>
<text text-anchor="middle" x="537.42" y="-84.58" font-family="Times New Roman,serif" font-size="14.00">Shin Shoryuken</text>
</g>
<!-- (Medium) Hashogeki&#45;&gt;Shin Shoryuken -->
<g id="edge36" class="edge">
<title>(Medium) Hashogeki&#45;&gt;Shin Shoryuken</title>
<path fill="none" stroke="black" d="M529.14,-143.7C530.31,-136.24 531.71,-127.32 533.02,-118.97"/>
<polygon fill="black" stroke="black" points="536.64,-119.53 534.73,-109.1 529.72,-118.44 536.64,-119.53"/>
</g>
<!-- Heavy Attack (Punish Counter) -->
<g id="node36" class="node">
<title>Heavy Attack (Punish Counter)</title>
<ellipse fill="none" stroke="black" cx="859.42" cy="-738" rx="126.91" ry="18"/>
<text text-anchor="middle" x="859.42" y="-732.58" font-family="Times New Roman,serif" font-size="14.00">Heavy Attack (Punish Counter)</text>
</g>
<!-- Heavy Attack (Punish Counter)&#45;&gt;Cancel Drive Rush -->
<g id="edge37" class="edge">
<title>Heavy Attack (Punish Counter)&#45;&gt;Cancel Drive Rush</title>
<path fill="none" stroke="black" d="M859.42,-719.7C859.42,-712.24 859.42,-703.32 859.42,-694.97"/>
<polygon fill="black" stroke="black" points="862.92,-695.1 859.42,-685.1 855.92,-695.1 862.92,-695.1"/>
</g>
<!-- Shin Hashogeki (Hold) -->
<g id="node38" class="node">
<title>Shin Hashogeki (Hold)</title>
<ellipse fill="none" stroke="black" cx="217.42" cy="-306" rx="95.47" ry="18"/>
<text text-anchor="middle" x="217.42" y="-300.57" font-family="Times New Roman,serif" font-size="14.00">Shin Hashogeki (Hold)</text>
</g>
<!-- OD Hashogeki (While Buffed)&#45;&gt;Shin Hashogeki (Hold) -->
<g id="edge47" class="edge">
<title>OD Hashogeki (While Buffed)&#45;&gt;Shin Hashogeki (Hold)</title>
<path fill="none" stroke="black" d="M136.99,-647.76C155.78,-622.1 187.42,-571.67 187.42,-523 187.42,-523 187.42,-523 187.42,-449 187.42,-408.52 199.24,-362.91 208.04,-334.57"/>
<polygon fill="black" stroke="black" points="211.63,-335.83 211.35,-325.24 204.96,-333.69 211.63,-335.83"/>
</g>
<!-- Shin Hashogeki (Hold)&#45;&gt;Shoryuken -->
<g id="edge48" class="edge">
<title>Shin Hashogeki (Hold)&#45;&gt;Shoryuken</title>
<path fill="none" stroke="black" d="M232,-287.85C264.11,-250.1 341,-159.69 378.35,-115.77"/>
<polygon fill="black" stroke="black" points="381.45,-118.53 385.27,-108.64 376.12,-113.99 381.45,-118.53"/>
</g>
</g>
</svg>
