<?xml version="1.0" encoding="UTF-8" standalone="no"?>
<!DOCTYPE svg PUBLIC "-//W3C//DTD SVG 1.1//EN"
 "http://www.w3.org/Graphics/SVG/1.1/DTD/svg11.dtd">
<!-- Generated by graphviz version 8.0.5 (20230430.1635)
 -->
<!-- Pages: 1 -->
<svg width="2169pt" height="836pt"
 viewBox="0.00 0.00 2169.37 836.00" xmlns="http://www.w3.org/2000/svg" xmlns:xlink="http://www.w3.org/1999/xlink">
<g id="graph0" class="graph" transform="scale(1 1) rotate(0) translate(4 832)">
<polygon fill="white" stroke="none" points="-4,4 -4,-832 2165.37,-832 2165.37,4 -4,4"/>
<!-- Jumping Heavy Kick -->
<g id="node1" class="node">
<title>Jumping Heavy Kick</title>
<ellipse fill="none" stroke="black" cx="1809.34" cy="-810" rx="87.49" ry="18"/>
<text text-anchor="middle" x="1809.34" y="-804.58" font-family="Times New Roman,serif" font-size="14.00">Jumping Heavy Kick</text>
</g>
<!-- Crouching Heavy Kick -->
<g id="node2" class="node">
<title>Crouching Heavy Kick</title>
<ellipse fill="none" stroke="black" cx="684.34" cy="-378" rx="95.47" ry="18"/>
<text text-anchor="middle" x="684.34" y="-372.57" font-family="Times New Roman,serif" font-size="14.00">Crouching Heavy Kick</text>
</g>
<!-- Jumping Heavy Kick&#45;&gt;Crouching Heavy Kick -->
<g id="edge1" class="edge">
<title>Jumping Heavy Kick&#45;&gt;Crouching Heavy Kick</title>
<path fill="none" stroke="black" d="M1758.14,-794.97C1618.02,-756.83 1216.23,-649.23 878.34,-576 835.06,-566.62 710.69,-574.02 682.34,-540 651.21,-502.63 663.32,-441.68 674.28,-406.47"/>
<polygon fill="black" stroke="black" points="677.78,-408.02 677.59,-397.42 671.13,-405.83 677.78,-408.02"/>
</g>
<!-- Double Shot -->
<g id="node9" class="node">
<title>Double Shot</title>
<ellipse fill="none" stroke="black" cx="1594.34" cy="-306" rx="57.55" ry="18"/>
<text text-anchor="middle" x="1594.34" y="-300.57" font-family="Times New Roman,serif" font-size="14.00">Double Shot</text>
</g>
<!-- Jumping Heavy Kick&#45;&gt;Double Shot -->
<g id="edge9" class="edge">
<title>Jumping Heavy Kick&#45;&gt;Double Shot</title>
<path fill="none" stroke="black" d="M1896.48,-807.56C1994.25,-800.78 2139.34,-772.87 2139.34,-667 2139.34,-667 2139.34,-667 2139.34,-593 2139.34,-494.5 2020.84,-542.45 1956.34,-468 1921.33,-427.59 1946.55,-391.5 1903.34,-360 1814.05,-294.91 1765.54,-346.43 1657.34,-324 1653.68,-323.24 1649.92,-322.4 1646.14,-321.5"/>
<polygon fill="black" stroke="black" points="1647.07,-317.87 1636.52,-318.86 1645.38,-324.67 1647.07,-317.87"/>
</g>
<!-- Standing Medium Punch -->
<g id="node12" class="node">
<title>Standing Medium Punch</title>
<ellipse fill="none" stroke="black" cx="1809.34" cy="-738" rx="101.96" ry="18"/>
<text text-anchor="middle" x="1809.34" y="-732.58" font-family="Times New Roman,serif" font-size="14.00">Standing Medium Punch</text>
</g>
<!-- Jumping Heavy Kick&#45;&gt;Standing Medium Punch -->
<g id="edge45" class="edge">
<title>Jumping Heavy Kick&#45;&gt;Standing Medium Punch</title>
<path fill="none" stroke="black" d="M1809.34,-791.7C1809.34,-784.24 1809.34,-775.32 1809.34,-766.97"/>
<polygon fill="black" stroke="black" points="1812.84,-767.1 1809.34,-757.1 1805.84,-767.1 1812.84,-767.1"/>
</g>
<!-- Crouching Light Kick -->
<g id="node3" class="node">
<title>Crouching Light Kick</title>
<ellipse fill="none" stroke="black" cx="2056.34" cy="-450" rx="90.98" ry="18"/>
<text text-anchor="middle" x="2056.34" y="-444.57" font-family="Times New Roman,serif" font-size="14.00">Crouching Light Kick</text>
</g>
<!-- Crouching Light Punch -->
<g id="node4" class="node">
<title>Crouching Light Punch</title>
<ellipse fill="none" stroke="black" cx="2062.34" cy="-378" rx="96.97" ry="18"/>
<text text-anchor="middle" x="2062.34" y="-372.57" font-family="Times New Roman,serif" font-size="14.00">Crouching Light Punch</text>
</g>
<!-- Crouching Light Kick&#45;&gt;Crouching Light Punch -->
<g id="edge2" class="edge">
<title>Crouching Light Kick&#45;&gt;Crouching Light Punch</title>
<path fill="none" stroke="black" d="M2057.83,-431.7C2058.47,-424.24 2059.23,-415.32 2059.95,-406.97"/>
<polygon fill="black" stroke="black" points="2063.51,-407.37 2060.88,-397.1 2056.54,-406.77 2063.51,-407.37"/>
</g>
<!-- Somersault Kick -->
<g id="node5" class="node">
<title>Somersault Kick</title>
<ellipse fill="none" stroke="black" cx="945.34" cy="-234" rx="72.02" ry="18"/>
<text text-anchor="middle" x="945.34" y="-228.57" font-family="Times New Roman,serif" font-size="14.00">Somersault Kick</text>
</g>
<!-- Crouching Light Punch&#45;&gt;Somersault Kick -->
<g id="edge3" class="edge">
<title>Crouching Light Punch&#45;&gt;Somersault Kick</title>
<path fill="none" stroke="black" d="M2008.97,-362.57C1932.55,-342.49 1787.28,-306.54 1661.34,-288 1433.45,-254.45 1161.46,-241.72 1027.8,-237.23"/>
<polygon fill="black" stroke="black" points="1027.97,-233.7 1017.86,-236.87 1027.74,-240.7 1027.97,-233.7"/>
</g>
<!-- Standing Light Kick -->
<g id="node36" class="node">
<title>Standing Light Kick</title>
<ellipse fill="none" stroke="black" cx="1994.34" cy="-306" rx="84.5" ry="18"/>
<text text-anchor="middle" x="1994.34" y="-300.57" font-family="Times New Roman,serif" font-size="14.00">Standing Light Kick</text>
</g>
<!-- Crouching Light Punch&#45;&gt;Standing Light Kick -->
<g id="edge48" class="edge">
<title>Crouching Light Punch&#45;&gt;Standing Light Kick</title>
<path fill="none" stroke="black" d="M2045.88,-360.05C2037.53,-351.46 2027.23,-340.86 2018.04,-331.4"/>
<polygon fill="black" stroke="black" points="2021.13,-329.52 2011.65,-324.79 2016.11,-334.4 2021.13,-329.52"/>
</g>
<!-- Crossfire Somersault -->
<g id="node32" class="node">
<title>Crossfire Somersault</title>
<ellipse fill="none" stroke="black" cx="944.34" cy="-162" rx="88.99" ry="18"/>
<text text-anchor="middle" x="944.34" y="-156.57" font-family="Times New Roman,serif" font-size="14.00">Crossfire Somersault</text>
</g>
<!-- Somersault Kick&#45;&gt;Crossfire Somersault -->
<g id="edge38" class="edge">
<title>Somersault Kick&#45;&gt;Crossfire Somersault</title>
<path fill="none" stroke="black" d="M945.1,-215.7C944.99,-208.24 944.86,-199.32 944.74,-190.97"/>
<polygon fill="black" stroke="black" points="948.23,-191.05 944.59,-181.1 941.23,-191.15 948.23,-191.05"/>
</g>
<!-- Burning Straight -->
<g id="node6" class="node">
<title>Burning Straight</title>
<ellipse fill="none" stroke="black" cx="304.34" cy="-522" rx="70.52" ry="18"/>
<text text-anchor="middle" x="304.34" y="-516.58" font-family="Times New Roman,serif" font-size="14.00">Burning Straight</text>
</g>
<!-- Sonic Boom -->
<g id="node7" class="node">
<title>Sonic Boom</title>
<ellipse fill="none" stroke="black" cx="206.34" cy="-594" rx="57.55" ry="18"/>
<text text-anchor="middle" x="206.34" y="-588.58" font-family="Times New Roman,serif" font-size="14.00">Sonic Boom</text>
</g>
<!-- Burning Straight&#45;&gt;Sonic Boom -->
<g id="edge4" class="edge">
<title>Burning Straight&#45;&gt;Sonic Boom</title>
<path fill="none" stroke="black" d="M286.59,-539.88C274.21,-549.45 257.44,-561.52 242.39,-571.73"/>
<polygon fill="black" stroke="black" points="240.66,-569.34 234.29,-577.81 244.55,-575.17 240.66,-569.34"/>
</g>
<!-- OD Sonic Boom -->
<g id="node14" class="node">
<title>OD Sonic Boom</title>
<ellipse fill="none" stroke="black" cx="743.34" cy="-234" rx="73.52" ry="18"/>
<text text-anchor="middle" x="743.34" y="-228.57" font-family="Times New Roman,serif" font-size="14.00">OD Sonic Boom</text>
</g>
<!-- Burning Straight&#45;&gt;OD Sonic Boom -->
<g id="edge32" class="edge">
<title>Burning Straight&#45;&gt;OD Sonic Boom</title>
<path fill="none" stroke="black" d="M368.07,-514.1C487.36,-499.73 736.99,-462.3 788.34,-396 819.45,-355.84 786.98,-295.33 763.33,-261.07"/>
<polygon fill="black" stroke="black" points="765.62,-259.25 756.96,-253.14 759.92,-263.31 765.62,-259.25"/>
</g>
<!-- Sonic Hurricane -->
<g id="node19" class="node">
<title>Sonic Hurricane</title>
<ellipse fill="none" stroke="black" cx="230.34" cy="-90" rx="70.52" ry="18"/>
<text text-anchor="middle" x="230.34" y="-84.58" font-family="Times New Roman,serif" font-size="14.00">Sonic Hurricane</text>
</g>
<!-- Burning Straight&#45;&gt;Sonic Hurricane -->
<g id="edge23" class="edge">
<title>Burning Straight&#45;&gt;Sonic Hurricane</title>
<path fill="none" stroke="black" d="M291.09,-504.05C274.87,-484.32 245.69,-451.91 214.34,-432 175.18,-407.12 146.75,-431.05 116.34,-396 89.84,-365.45 97.34,-347.45 97.34,-307 97.34,-307 97.34,-307 97.34,-233 97.34,-192.46 91.96,-175.61 117.34,-144 130.98,-127.02 151.32,-115.21 171,-107.12"/>
<polygon fill="black" stroke="black" points="172.1,-110.06 180.19,-103.22 169.6,-103.52 172.1,-110.06"/>
</g>
<!-- Cancel Drive Rush -->
<g id="node22" class="node">
<title>Cancel Drive Rush</title>
<ellipse fill="none" stroke="black" cx="1023.34" cy="-450" rx="80.5" ry="18"/>
<text text-anchor="middle" x="1023.34" y="-444.57" font-family="Times New Roman,serif" font-size="14.00">Cancel Drive Rush</text>
</g>
<!-- Burning Straight&#45;&gt;Cancel Drive Rush -->
<g id="edge16" class="edge">
<title>Burning Straight&#45;&gt;Cancel Drive Rush</title>
<path fill="none" stroke="black" d="M369.42,-514.66C500.35,-501.92 795.44,-473.19 940.15,-459.1"/>
<polygon fill="black" stroke="black" points="940.11,-462.52 949.73,-458.07 939.43,-455.56 940.11,-462.52"/>
</g>
<!-- (Light) Sonic Boom -->
<g id="node34" class="node">
<title>(Light) Sonic Boom</title>
<ellipse fill="none" stroke="black" cx="120.34" cy="-450" rx="85" ry="18"/>
<text text-anchor="middle" x="120.34" y="-444.57" font-family="Times New Roman,serif" font-size="14.00">(Light) Sonic Boom</text>
</g>
<!-- Burning Straight&#45;&gt;(Light) Sonic Boom -->
<g id="edge43" class="edge">
<title>Burning Straight&#45;&gt;(Light) Sonic Boom</title>
<path fill="none" stroke="black" d="M266.22,-506.5C238.41,-495.92 200.47,-481.48 170.26,-469.99"/>
<polygon fill="black" stroke="black" points="171.92,-466.5 161.33,-466.21 169.43,-473.04 171.92,-466.5"/>
</g>
<!-- Sonic Boom&#45;&gt;Burning Straight -->
<g id="edge42" class="edge">
<title>Sonic Boom&#45;&gt;Burning Straight</title>
<path fill="none" stroke="black" d="M223.73,-576.41C235.92,-566.97 252.48,-555.03 267.47,-544.83"/>
<polygon fill="black" stroke="black" points="269.19,-547.22 275.55,-538.75 265.29,-541.41 269.19,-547.22"/>
</g>
<!-- Driver Impact (Punish Counter) -->
<g id="node8" class="node">
<title>Driver Impact (Punish Counter)</title>
<ellipse fill="none" stroke="black" cx="1313.34" cy="-378" rx="127.91" ry="18"/>
<text text-anchor="middle" x="1313.34" y="-372.57" font-family="Times New Roman,serif" font-size="14.00">Driver Impact (Punish Counter)</text>
</g>
<!-- Driver Impact (Punish Counter)&#45;&gt;Double Shot -->
<g id="edge5" class="edge">
<title>Driver Impact (Punish Counter)&#45;&gt;Double Shot</title>
<path fill="none" stroke="black" d="M1374.32,-361.81C1423.69,-349.51 1492.59,-332.35 1540.08,-320.52"/>
<polygon fill="black" stroke="black" points="1540.61,-323.74 1549.46,-317.93 1538.91,-316.95 1540.61,-323.74"/>
</g>
<!-- Double Shot&#45;&gt;Somersault Kick -->
<g id="edge6" class="edge">
<title>Double Shot&#45;&gt;Somersault Kick</title>
<path fill="none" stroke="black" d="M1540.4,-299.18C1425.02,-286.74 1153.97,-257.5 1021.25,-243.19"/>
<polygon fill="black" stroke="black" points="1021.71,-239.61 1011.39,-242.02 1020.96,-246.57 1021.71,-239.61"/>
</g>
<!-- Double Shot&#45;&gt;OD Sonic Boom -->
<g id="edge20" class="edge">
<title>Double Shot&#45;&gt;OD Sonic Boom</title>
<path fill="none" stroke="black" d="M1537.9,-302.2C1415.16,-295.81 1114.84,-278.66 864.34,-252 848.34,-250.3 831.19,-248.11 814.98,-245.87"/>
<polygon fill="black" stroke="black" points="815.88,-242.33 805.49,-244.4 814.91,-249.26 815.88,-242.33"/>
</g>
<!-- Drive Impact (Block) -->
<g id="node10" class="node">
<title>Drive Impact (Block)</title>
<ellipse fill="none" stroke="black" cx="214.34" cy="-378" rx="89.49" ry="18"/>
<text text-anchor="middle" x="214.34" y="-372.57" font-family="Times New Roman,serif" font-size="14.00">Drive Impact (Block)</text>
</g>
<!-- Phantom Cutter -->
<g id="node11" class="node">
<title>Phantom Cutter</title>
<ellipse fill="none" stroke="black" cx="338.34" cy="-306" rx="69.03" ry="18"/>
<text text-anchor="middle" x="338.34" y="-300.57" font-family="Times New Roman,serif" font-size="14.00">Phantom Cutter</text>
</g>
<!-- Drive Impact (Block)&#45;&gt;Phantom Cutter -->
<g id="edge7" class="edge">
<title>Drive Impact (Block)&#45;&gt;Phantom Cutter</title>
<path fill="none" stroke="black" d="M243.42,-360.59C260.53,-350.93 282.35,-338.61 300.76,-328.22"/>
<polygon fill="black" stroke="black" points="302.32,-330.79 309.31,-322.83 298.88,-324.7 302.32,-330.79"/>
</g>
<!-- Phantom Cutter&#45;&gt;Somersault Kick -->
<g id="edge8" class="edge">
<title>Phantom Cutter&#45;&gt;Somersault Kick</title>
<path fill="none" stroke="black" d="M401.98,-298.78C495.21,-289.51 674.36,-271.1 826.34,-252 841.74,-250.07 858.23,-247.82 873.88,-245.61"/>
<polygon fill="black" stroke="black" points="874.15,-248.96 883.55,-244.09 873.16,-242.03 874.15,-248.96"/>
</g>
<!-- (Heavy) Somersault Kick -->
<g id="node21" class="node">
<title>(Heavy) Somersault Kick</title>
<ellipse fill="none" stroke="black" cx="230.34" cy="-162" rx="103.96" ry="18"/>
<text text-anchor="middle" x="230.34" y="-156.57" font-family="Times New Roman,serif" font-size="14.00">(Heavy) Somersault Kick</text>
</g>
<!-- Phantom Cutter&#45;&gt;(Heavy) Somersault Kick -->
<g id="edge26" class="edge">
<title>Phantom Cutter&#45;&gt;(Heavy) Somersault Kick</title>
<path fill="none" stroke="black" d="M299.87,-290.65C281.92,-282.07 261.81,-269.39 249.34,-252 236.69,-234.35 232.15,-209.99 230.65,-191.22"/>
<polygon fill="black" stroke="black" points="234.1,-191.16 230.07,-181.36 227.11,-191.54 234.1,-191.16"/>
</g>
<!-- Standing Medium Punch&#45;&gt;Double Shot -->
<g id="edge19" class="edge">
<title>Standing Medium Punch&#45;&gt;Double Shot</title>
<path fill="none" stroke="black" d="M1829.32,-719.95C1855.83,-695.31 1899.34,-646.95 1899.34,-595 1899.34,-595 1899.34,-595 1899.34,-449 1899.34,-408.55 1909.65,-387.87 1880.34,-360 1843.97,-325.41 1706.42,-334.55 1657.34,-324 1653.75,-323.23 1650.05,-322.38 1646.33,-321.48"/>
<polygon fill="black" stroke="black" points="1647.43,-317.9 1636.88,-318.86 1645.73,-324.69 1647.43,-317.9"/>
</g>
<!-- Crouching Medium Punch -->
<g id="node13" class="node">
<title>Crouching Medium Punch</title>
<ellipse fill="none" stroke="black" cx="246.34" cy="-666" rx="108.45" ry="18"/>
<text text-anchor="middle" x="246.34" y="-660.58" font-family="Times New Roman,serif" font-size="14.00">Crouching Medium Punch</text>
</g>
<!-- Standing Medium Punch&#45;&gt;Crouching Medium Punch -->
<g id="edge10" class="edge">
<title>Standing Medium Punch&#45;&gt;Crouching Medium Punch</title>
<path fill="none" stroke="black" d="M1710.44,-733.43C1496.56,-725.59 975.08,-705.82 538.34,-684 478.43,-681.01 411.64,-677.16 357.07,-673.88"/>
<polygon fill="black" stroke="black" points="357.52,-670.34 347.33,-673.23 357.1,-677.33 357.52,-670.34"/>
</g>
<!-- Sonic Boom (Perfect) -->
<g id="node35" class="node">
<title>Sonic Boom (Perfect)</title>
<ellipse fill="none" stroke="black" cx="2019.34" cy="-666" rx="92.48" ry="18"/>
<text text-anchor="middle" x="2019.34" y="-660.58" font-family="Times New Roman,serif" font-size="14.00">Sonic Boom (Perfect)</text>
</g>
<!-- Standing Medium Punch&#45;&gt;Sonic Boom (Perfect) -->
<g id="edge46" class="edge">
<title>Standing Medium Punch&#45;&gt;Sonic Boom (Perfect)</title>
<path fill="none" stroke="black" d="M1855.69,-721.55C1887.65,-710.9 1930.29,-696.68 1964.03,-685.44"/>
<polygon fill="black" stroke="black" points="1964.82,-688.53 1973.2,-682.05 1962.6,-681.89 1964.82,-688.53"/>
</g>
<!-- Crouching Medium Punch&#45;&gt;Somersault Kick -->
<g id="edge37" class="edge">
<title>Crouching Medium Punch&#45;&gt;Somersault Kick</title>
<path fill="none" stroke="black" d="M345.39,-658.32C520.88,-646.26 868.98,-621.25 878.34,-612 958.35,-532.9 878.55,-469.96 902.34,-360 909.83,-325.42 923.89,-287.15 933.9,-262.18"/>
<polygon fill="black" stroke="black" points="937.51,-263.6 938.04,-253.02 931.02,-260.96 937.51,-263.6"/>
</g>
<!-- Crouching Medium Punch&#45;&gt;Sonic Boom -->
<g id="edge41" class="edge">
<title>Crouching Medium Punch&#45;&gt;Sonic Boom</title>
<path fill="none" stroke="black" d="M236.46,-647.7C231.95,-639.81 226.52,-630.3 221.51,-621.55"/>
<polygon fill="black" stroke="black" points="224.12,-620.05 216.12,-613.1 218.04,-623.52 224.12,-620.05"/>
</g>
<!-- Crouching Medium Punch&#45;&gt;OD Sonic Boom -->
<g id="edge11" class="edge">
<title>Crouching Medium Punch&#45;&gt;OD Sonic Boom</title>
<path fill="none" stroke="black" d="M171.05,-652.72C100.99,-636.5 7.34,-600.34 7.34,-523 7.34,-523 7.34,-523 7.34,-449 7.34,-437.38 -41.91,-461.26 116.34,-360 176.62,-321.44 191.71,-308.22 260.34,-288 298.08,-276.88 537.33,-253.82 664.35,-242.13"/>
<polygon fill="black" stroke="black" points="664.52,-245.54 674.16,-241.14 663.88,-238.57 664.52,-245.54"/>
</g>
<!-- Crouching Medium Punch&#45;&gt;(Light) Sonic Boom -->
<g id="edge52" class="edge">
<title>Crouching Medium Punch&#45;&gt;(Light) Sonic Boom</title>
<path fill="none" stroke="black" d="M191.67,-650C172.14,-641.9 151.89,-629.79 139.34,-612 111.51,-572.53 112.45,-513.63 116.1,-479.09"/>
<polygon fill="black" stroke="black" points="119.67,-479.72 117.4,-469.37 112.72,-478.88 119.67,-479.72"/>
</g>
<!-- (Light) Sonic Boom (Perfect) -->
<g id="node39" class="node">
<title>(Light) Sonic Boom (Perfect)</title>
<ellipse fill="none" stroke="black" cx="749.34" cy="-594" rx="119.93" ry="18"/>
<text text-anchor="middle" x="749.34" y="-588.58" font-family="Times New Roman,serif" font-size="14.00">(Light) Sonic Boom (Perfect)</text>
</g>
<!-- Crouching Medium Punch&#45;&gt;(Light) Sonic Boom (Perfect) -->
<g id="edge56" class="edge">
<title>Crouching Medium Punch&#45;&gt;(Light) Sonic Boom (Perfect)</title>
<path fill="none" stroke="black" d="M327.44,-653.71C416.27,-641.35 558.65,-621.54 653.08,-608.4"/>
<polygon fill="black" stroke="black" points="653.36,-611.75 662.78,-606.91 652.39,-604.82 653.36,-611.75"/>
</g>
<!-- OD Sonic Boom&#45;&gt;(Heavy) Somersault Kick -->
<g id="edge21" class="edge">
<title>OD Sonic Boom&#45;&gt;(Heavy) Somersault Kick</title>
<path fill="none" stroke="black" d="M679.21,-224.86C600.17,-214.74 461.78,-196.75 343.34,-180 334.82,-178.79 325.95,-177.51 317.08,-176.21"/>
<polygon fill="black" stroke="black" points="317.7,-172.61 307.3,-174.61 316.68,-179.54 317.7,-172.61"/>
</g>
<!-- Sonic Break -->
<g id="node30" class="node">
<title>Sonic Break</title>
<ellipse fill="none" stroke="black" cx="762.34" cy="-162" rx="56.05" ry="18"/>
<text text-anchor="middle" x="762.34" y="-156.57" font-family="Times New Roman,serif" font-size="14.00">Sonic Break</text>
</g>
<!-- OD Sonic Boom&#45;&gt;Sonic Break -->
<g id="edge33" class="edge">
<title>OD Sonic Boom&#45;&gt;Sonic Break</title>
<path fill="none" stroke="black" d="M748.04,-215.7C750.09,-208.15 752.54,-199.12 754.83,-190.68"/>
<polygon fill="black" stroke="black" points="758.46,-191.67 757.7,-181.1 751.7,-189.84 758.46,-191.67"/>
</g>
<!-- Crouching Light Punch (Counter) -->
<g id="node15" class="node">
<title>Crouching Light Punch (Counter)</title>
<ellipse fill="none" stroke="black" cx="1594.34" cy="-378" rx="135.39" ry="18"/>
<text text-anchor="middle" x="1594.34" y="-372.57" font-family="Times New Roman,serif" font-size="14.00">Crouching Light Punch (Counter)</text>
</g>
<!-- Crouching Light Punch (Counter)&#45;&gt;Double Shot -->
<g id="edge12" class="edge">
<title>Crouching Light Punch (Counter)&#45;&gt;Double Shot</title>
<path fill="none" stroke="black" d="M1594.34,-359.7C1594.34,-352.24 1594.34,-343.32 1594.34,-334.97"/>
<polygon fill="black" stroke="black" points="1597.84,-335.1 1594.34,-325.1 1590.84,-335.1 1597.84,-335.1"/>
</g>
<!-- Crouching Medium Kick (Counter) -->
<g id="node16" class="node">
<title>Crouching Medium Kick (Counter)</title>
<ellipse fill="none" stroke="black" cx="459.34" cy="-90" rx="140.88" ry="18"/>
<text text-anchor="middle" x="459.34" y="-84.58" font-family="Times New Roman,serif" font-size="14.00">Crouching Medium Kick (Counter)</text>
</g>
<!-- OD Somersault Kick -->
<g id="node17" class="node">
<title>OD Somersault Kick</title>
<ellipse fill="none" stroke="black" cx="344.34" cy="-18" rx="87.99" ry="18"/>
<text text-anchor="middle" x="344.34" y="-12.57" font-family="Times New Roman,serif" font-size="14.00">OD Somersault Kick</text>
</g>
<!-- Crouching Medium Kick (Counter)&#45;&gt;OD Somersault Kick -->
<g id="edge13" class="edge">
<title>Crouching Medium Kick (Counter)&#45;&gt;OD Somersault Kick</title>
<path fill="none" stroke="black" d="M431.21,-71.88C415.98,-62.61 396.99,-51.05 380.66,-41.1"/>
<polygon fill="black" stroke="black" points="382.76,-37.67 372.39,-35.47 379.12,-43.65 382.76,-37.67"/>
</g>
<!-- Crouching Medium Kick (Punish Counter) -->
<g id="node18" class="node">
<title>Crouching Medium Kick (Punish Counter)</title>
<ellipse fill="none" stroke="black" cx="520.34" cy="-162" rx="168.33" ry="18"/>
<text text-anchor="middle" x="520.34" y="-156.57" font-family="Times New Roman,serif" font-size="14.00">Crouching Medium Kick (Punish Counter)</text>
</g>
<!-- Crouching Medium Kick (Punish Counter)&#45;&gt;Sonic Hurricane -->
<g id="edge14" class="edge">
<title>Crouching Medium Kick (Punish Counter)&#45;&gt;Sonic Hurricane</title>
<path fill="none" stroke="black" d="M454.18,-145.03C405.06,-133.17 338.62,-117.14 290.9,-105.62"/>
<polygon fill="black" stroke="black" points="291.95,-102.03 281.41,-103.09 290.31,-108.83 291.95,-102.03"/>
</g>
<!-- Sonic Hurricane&#45;&gt;OD Somersault Kick -->
<g id="edge24" class="edge">
<title>Sonic Hurricane&#45;&gt;OD Somersault Kick</title>
<path fill="none" stroke="black" d="M256.5,-72.94C271.92,-63.47 291.65,-51.36 308.5,-41.01"/>
<polygon fill="black" stroke="black" points="309.83,-43.69 316.52,-35.47 306.17,-37.72 309.83,-43.69"/>
</g>
<!-- Phantom Cutter (Punish Counter) -->
<g id="node20" class="node">
<title>Phantom Cutter (Punish Counter)</title>
<ellipse fill="none" stroke="black" cx="393.34" cy="-234" rx="134.9" ry="18"/>
<text text-anchor="middle" x="393.34" y="-228.57" font-family="Times New Roman,serif" font-size="14.00">Phantom Cutter (Punish Counter)</text>
</g>
<!-- Phantom Cutter (Punish Counter)&#45;&gt;(Heavy) Somersault Kick -->
<g id="edge15" class="edge">
<title>Phantom Cutter (Punish Counter)&#45;&gt;(Heavy) Somersault Kick</title>
<path fill="none" stroke="black" d="M354.71,-216.41C331.71,-206.53 302.34,-193.92 277.92,-183.43"/>
<polygon fill="black" stroke="black" points="279.7,-179.96 269.13,-179.23 276.94,-186.39 279.7,-179.96"/>
</g>
<!-- (Heavy) Somersault Kick&#45;&gt;Sonic Hurricane -->
<g id="edge27" class="edge">
<title>(Heavy) Somersault Kick&#45;&gt;Sonic Hurricane</title>
<path fill="none" stroke="black" d="M230.34,-143.7C230.34,-136.24 230.34,-127.32 230.34,-118.97"/>
<polygon fill="black" stroke="black" points="233.84,-119.1 230.34,-109.1 226.84,-119.1 233.84,-119.1"/>
</g>
<!-- Rolling Sobat -->
<g id="node23" class="node">
<title>Rolling Sobat</title>
<ellipse fill="none" stroke="black" cx="1809.34" cy="-378" rx="61.54" ry="18"/>
<text text-anchor="middle" x="1809.34" y="-372.57" font-family="Times New Roman,serif" font-size="14.00">Rolling Sobat</text>
</g>
<!-- Cancel Drive Rush&#45;&gt;Rolling Sobat -->
<g id="edge17" class="edge">
<title>Cancel Drive Rush&#45;&gt;Rolling Sobat</title>
<path fill="none" stroke="black" d="M1103.44,-447.26C1236.16,-443.45 1509.74,-431.6 1738.34,-396 1743.61,-395.18 1749.06,-394.17 1754.49,-393.06"/>
<polygon fill="black" stroke="black" points="1754.84,-396.35 1763.87,-390.81 1753.35,-389.51 1754.84,-396.35"/>
</g>
<!-- (After drive rush) Rolling Sobat -->
<g id="node33" class="node">
<title>(After drive rush) Rolling Sobat</title>
<ellipse fill="none" stroke="black" cx="1039.34" cy="-378" rx="128.41" ry="18"/>
<text text-anchor="middle" x="1039.34" y="-372.57" font-family="Times New Roman,serif" font-size="14.00">(After drive rush) Rolling Sobat</text>
</g>
<!-- Cancel Drive Rush&#45;&gt;(After drive rush) Rolling Sobat -->
<g id="edge39" class="edge">
<title>Cancel Drive Rush&#45;&gt;(After drive rush) Rolling Sobat</title>
<path fill="none" stroke="black" d="M1027.3,-431.7C1029.02,-424.15 1031.09,-415.12 1033.02,-406.68"/>
<polygon fill="black" stroke="black" points="1036.62,-407.63 1035.43,-397.1 1029.79,-406.07 1036.62,-407.63"/>
</g>
<!-- Rolling Sobat&#45;&gt;Double Shot -->
<g id="edge18" class="edge">
<title>Rolling Sobat&#45;&gt;Double Shot</title>
<path fill="none" stroke="black" d="M1769.16,-363.92C1733.61,-352.34 1681.62,-335.42 1643.58,-323.03"/>
<polygon fill="black" stroke="black" points="1644.84,-319.43 1634.25,-319.67 1642.67,-326.09 1644.84,-319.43"/>
</g>
<!-- Rolling Sobat&#45;&gt;Standing Medium Punch -->
<g id="edge51" class="edge">
<title>Rolling Sobat&#45;&gt;Standing Medium Punch</title>
<path fill="none" stroke="black" d="M1809.34,-396.49C1809.34,-423.29 1809.34,-476.13 1809.34,-521 1809.34,-595 1809.34,-595 1809.34,-595 1809.34,-634.43 1809.34,-680.03 1809.34,-708.69"/>
<polygon fill="black" stroke="black" points="1805.84,-708.51 1809.34,-718.51 1812.84,-708.51 1805.84,-708.51"/>
</g>
<!-- Driver Impact (Block) -->
<g id="node24" class="node">
<title>Driver Impact (Block)</title>
<ellipse fill="none" stroke="black" cx="374.34" cy="-594" rx="92.48" ry="18"/>
<text text-anchor="middle" x="374.34" y="-588.58" font-family="Times New Roman,serif" font-size="14.00">Driver Impact (Block)</text>
</g>
<!-- Driver Impact (Block)&#45;&gt;Burning Straight -->
<g id="edge22" class="edge">
<title>Driver Impact (Block)&#45;&gt;Burning Straight</title>
<path fill="none" stroke="black" d="M357.4,-576.05C348.8,-567.46 338.2,-556.86 328.74,-547.4"/>
<polygon fill="black" stroke="black" points="331.68,-545.39 322.13,-540.79 326.73,-550.33 331.68,-545.39"/>
</g>
<!-- Drive Impact (Punish Counter) -->
<g id="node25" class="node">
<title>Drive Impact (Punish Counter)</title>
<ellipse fill="none" stroke="black" cx="446.34" cy="-378" rx="124.92" ry="18"/>
<text text-anchor="middle" x="446.34" y="-372.57" font-family="Times New Roman,serif" font-size="14.00">Drive Impact (Punish Counter)</text>
</g>
<!-- Drive Impact (Punish Counter)&#45;&gt;Phantom Cutter -->
<g id="edge25" class="edge">
<title>Drive Impact (Punish Counter)&#45;&gt;Phantom Cutter</title>
<path fill="none" stroke="black" d="M420.2,-360.05C405.69,-350.65 387.49,-338.85 371.94,-328.77"/>
<polygon fill="black" stroke="black" points="374.43,-325.57 364.13,-323.07 370.62,-331.44 374.43,-325.57"/>
</g>
<!-- Parry Drive Rush -->
<g id="node26" class="node">
<title>Parry Drive Rush</title>
<ellipse fill="none" stroke="black" cx="348.34" cy="-810" rx="75.02" ry="18"/>
<text text-anchor="middle" x="348.34" y="-804.58" font-family="Times New Roman,serif" font-size="14.00">Parry Drive Rush</text>
</g>
<!-- Crouching Medium Kick -->
<g id="node27" class="node">
<title>Crouching Medium Kick</title>
<ellipse fill="none" stroke="black" cx="449.34" cy="-738" rx="102.46" ry="18"/>
<text text-anchor="middle" x="449.34" y="-732.58" font-family="Times New Roman,serif" font-size="14.00">Crouching Medium Kick</text>
</g>
<!-- Parry Drive Rush&#45;&gt;Crouching Medium Kick -->
<g id="edge28" class="edge">
<title>Parry Drive Rush&#45;&gt;Crouching Medium Kick</title>
<path fill="none" stroke="black" d="M372.02,-792.59C385.25,-783.42 401.94,-771.85 416.43,-761.81"/>
<polygon fill="black" stroke="black" points="417.88,-764.37 424.11,-755.8 413.9,-758.61 417.88,-764.37"/>
</g>
<!-- Full Bullet Magnum -->
<g id="node31" class="node">
<title>Full Bullet Magnum</title>
<ellipse fill="none" stroke="black" cx="246.34" cy="-738" rx="83" ry="18"/>
<text text-anchor="middle" x="246.34" y="-732.58" font-family="Times New Roman,serif" font-size="14.00">Full Bullet Magnum</text>
</g>
<!-- Parry Drive Rush&#45;&gt;Full Bullet Magnum -->
<g id="edge35" class="edge">
<title>Parry Drive Rush&#45;&gt;Full Bullet Magnum</title>
<path fill="none" stroke="black" d="M324.43,-792.59C310.97,-783.35 293.97,-771.68 279.27,-761.59"/>
<polygon fill="black" stroke="black" points="281.69,-758.32 271.46,-755.55 277.73,-764.1 281.69,-758.32"/>
</g>
<!-- Standing Heavy Punch -->
<g id="node28" class="node">
<title>Standing Heavy Punch</title>
<ellipse fill="none" stroke="black" cx="642.34" cy="-666" rx="94.98" ry="18"/>
<text text-anchor="middle" x="642.34" y="-660.58" font-family="Times New Roman,serif" font-size="14.00">Standing Heavy Punch</text>
</g>
<!-- Crouching Medium Kick&#45;&gt;Standing Heavy Punch -->
<g id="edge29" class="edge">
<title>Crouching Medium Kick&#45;&gt;Standing Heavy Punch</title>
<path fill="none" stroke="black" d="M492.66,-721.29C521.41,-710.86 559.33,-697.11 589.81,-686.05"/>
<polygon fill="black" stroke="black" points="590.63,-689.12 598.84,-682.42 588.25,-682.54 590.63,-689.12"/>
</g>
<!-- Standing Heavy Punch&#45;&gt;Cancel Drive Rush -->
<g id="edge55" class="edge">
<title>Standing Heavy Punch&#45;&gt;Cancel Drive Rush</title>
<path fill="none" stroke="black" d="M722.14,-655.97C789.84,-647.11 880.71,-632.02 911.34,-612 961.67,-579.11 995.86,-515 1012.22,-478.38"/>
<polygon fill="black" stroke="black" points="1015.78,-479.97 1016.55,-469.4 1009.36,-477.18 1015.78,-479.97"/>
</g>
<!-- Solid Puncher -->
<g id="node29" class="node">
<title>Solid Puncher</title>
<ellipse fill="none" stroke="black" cx="548.34" cy="-594" rx="63.04" ry="18"/>
<text text-anchor="middle" x="548.34" y="-588.58" font-family="Times New Roman,serif" font-size="14.00">Solid Puncher</text>
</g>
<!-- Standing Heavy Punch&#45;&gt;Solid Puncher -->
<g id="edge30" class="edge">
<title>Standing Heavy Punch&#45;&gt;Solid Puncher</title>
<path fill="none" stroke="black" d="M619.59,-648.05C607.4,-638.98 592.23,-627.68 579.01,-617.84"/>
<polygon fill="black" stroke="black" points="581.35,-614.47 571.24,-611.31 577.17,-620.09 581.35,-614.47"/>
</g>
<!-- Solid Puncher&#45;&gt;Burning Straight -->
<g id="edge31" class="edge">
<title>Solid Puncher&#45;&gt;Burning Straight</title>
<path fill="none" stroke="black" d="M505,-580.57C464.64,-568.99 404.27,-551.67 360.29,-539.05"/>
<polygon fill="black" stroke="black" points="361.34,-535.42 350.76,-536.03 359.41,-542.15 361.34,-535.42"/>
</g>
<!-- Sonic Break&#45;&gt;Sonic Break -->
<g id="edge34" class="edge">
<title>Sonic Break&#45;&gt;Sonic Break</title>
<path fill="none" stroke="black" d="M801.58,-175.2C820.12,-176.74 836.4,-172.34 836.4,-162 836.4,-153.76 826.06,-149.3 812.48,-148.6"/>
<polygon fill="black" stroke="black" points="812.52,-145.11 802.58,-148.8 812.65,-152.11 812.52,-145.11"/>
</g>
<!-- Full Bullet Magnum&#45;&gt;Crouching Medium Punch -->
<g id="edge36" class="edge">
<title>Full Bullet Magnum&#45;&gt;Crouching Medium Punch</title>
<path fill="none" stroke="black" d="M246.34,-719.7C246.34,-712.24 246.34,-703.32 246.34,-694.97"/>
<polygon fill="black" stroke="black" points="249.84,-695.1 246.34,-685.1 242.84,-695.1 249.84,-695.1"/>
</g>
<!-- (After drive rush) Rolling Sobat&#45;&gt;Standing Medium Punch -->
<g id="edge40" class="edge">
<title>(After drive rush) Rolling Sobat&#45;&gt;Standing Medium Punch</title>
<path fill="none" stroke="black" d="M1128.45,-391.31C1249.86,-410.63 1452.34,-453.05 1452.34,-521 1452.34,-595 1452.34,-595 1452.34,-595 1452.34,-654.41 1625.2,-699.89 1730.35,-722.07"/>
<polygon fill="black" stroke="black" points="1729.43,-725.66 1739.93,-724.27 1730.85,-718.81 1729.43,-725.66"/>
</g>
<!-- (Light) Sonic Boom&#45;&gt;Crouching Heavy Kick -->
<g id="edge44" class="edge">
<title>(Light) Sonic Boom&#45;&gt;Crouching Heavy Kick</title>
<path fill="none" stroke="black" d="M195.78,-441.42C287.02,-431.99 445.19,-414.82 580.34,-396 588.15,-394.91 596.28,-393.71 604.4,-392.46"/>
<polygon fill="black" stroke="black" points="604.7,-395.8 614.04,-390.8 603.62,-388.88 604.7,-395.8"/>
</g>
<!-- (Light) Sonic Boom&#45;&gt;(Heavy) Somersault Kick -->
<g id="edge53" class="edge">
<title>(Light) Sonic Boom&#45;&gt;(Heavy) Somersault Kick</title>
<path fill="none" stroke="black" d="M116.49,-431.6C113.17,-413.41 109.85,-384.2 116.34,-360 134.43,-292.63 181.79,-224.49 209.44,-188.68"/>
<polygon fill="black" stroke="black" points="212.6,-191.33 216.02,-181.3 207.09,-187.01 212.6,-191.33"/>
</g>
<!-- Sonic Boom (Perfect)&#45;&gt;Crouching Light Punch -->
<g id="edge47" class="edge">
<title>Sonic Boom (Perfect)&#45;&gt;Crouching Light Punch</title>
<path fill="none" stroke="black" d="M2036.75,-648.03C2067.99,-616.22 2132.54,-543.92 2156.34,-468 2161.13,-452.73 2164.41,-445.82 2156.34,-432 2147.89,-417.54 2133.88,-406.71 2119.22,-398.75"/>
<polygon fill="black" stroke="black" points="2121.05,-395.25 2110.54,-393.92 2117.93,-401.51 2121.05,-395.25"/>
</g>
<!-- (Medium) Sonic Boom -->
<g id="node37" class="node">
<title>(Medium) Sonic Boom</title>
<ellipse fill="none" stroke="black" cx="1461.34" cy="-234" rx="96.47" ry="18"/>
<text text-anchor="middle" x="1461.34" y="-228.57" font-family="Times New Roman,serif" font-size="14.00">(Medium) Sonic Boom</text>
</g>
<!-- Standing Light Kick&#45;&gt;(Medium) Sonic Boom -->
<g id="edge49" class="edge">
<title>Standing Light Kick&#45;&gt;(Medium) Sonic Boom</title>
<path fill="none" stroke="black" d="M1923.84,-295.74C1827.38,-283.07 1654.31,-260.34 1549.43,-246.57"/>
<polygon fill="black" stroke="black" points="1549.92,-242.97 1539.55,-245.14 1549.01,-249.91 1549.92,-242.97"/>
</g>
<!-- (Medium) Sonic Boom&#45;&gt;(Heavy) Somersault Kick -->
<g id="edge50" class="edge">
<title>(Medium) Sonic Boom&#45;&gt;(Heavy) Somersault Kick</title>
<path fill="none" stroke="black" d="M1367.87,-229.12C1117.48,-218.64 443.78,-189.91 343.34,-180 334.02,-179.08 324.29,-177.92 314.62,-176.64"/>
<polygon fill="black" stroke="black" points="315.14,-173.04 304.76,-175.15 314.19,-179.98 315.14,-173.04"/>
</g>
<!-- Standing Medium Punch (Punish Counter) -->
<g id="node38" class="node">
<title>Standing Medium Punch (Punish Counter)</title>
<ellipse fill="none" stroke="black" cx="737.34" cy="-738" rx="167.83" ry="18"/>
<text text-anchor="middle" x="737.34" y="-732.58" font-family="Times New Roman,serif" font-size="14.00">Standing Medium Punch (Punish Counter)</text>
</g>
<!-- Standing Medium Punch (Punish Counter)&#45;&gt;Standing Heavy Punch -->
<g id="edge54" class="edge">
<title>Standing Medium Punch (Punish Counter)&#45;&gt;Standing Heavy Punch</title>
<path fill="none" stroke="black" d="M713.86,-719.7C701.81,-710.81 686.95,-699.87 673.91,-690.26"/>
<polygon fill="black" stroke="black" points="676.36,-686.98 666.23,-683.86 672.2,-692.61 676.36,-686.98"/>
</g>
<!-- Standing Heavy Kick -->
<g id="node40" class="node">
<title>Standing Heavy Kick</title>
<ellipse fill="none" stroke="black" cx="780.34" cy="-522" rx="88.99" ry="18"/>
<text text-anchor="middle" x="780.34" y="-516.58" font-family="Times New Roman,serif" font-size="14.00">Standing Heavy Kick</text>
</g>
<!-- (Light) Sonic Boom (Perfect)&#45;&gt;Standing Heavy Kick -->
<g id="edge57" class="edge">
<title>(Light) Sonic Boom (Perfect)&#45;&gt;Standing Heavy Kick</title>
<path fill="none" stroke="black" d="M757.01,-575.7C760.42,-567.98 764.53,-558.71 768.34,-550.11"/>
<polygon fill="black" stroke="black" points="771.92,-551.67 772.77,-541.1 765.52,-548.83 771.92,-551.67"/>
</g>
<!-- Standing Heavy Kick&#45;&gt;Crossfire Somersault -->
<g id="edge58" class="edge">
<title>Standing Heavy Kick&#45;&gt;Crossfire Somersault</title>
<path fill="none" stroke="black" d="M794.13,-503.79C813.21,-478.18 845.34,-427.8 845.34,-379 845.34,-379 845.34,-379 845.34,-305 845.34,-264.55 841.57,-249.43 864.34,-216 873.1,-203.15 886.11,-192.62 899.1,-184.43"/>
<polygon fill="black" stroke="black" points="900.67,-186.98 907.5,-178.89 897.11,-180.96 900.67,-186.98"/>
</g>
</g>
</svg>
