<?xml version="1.0" encoding="UTF-8" standalone="no"?>
<!DOCTYPE svg PUBLIC "-//W3C//DTD SVG 1.1//EN"
 "http://www.w3.org/Graphics/SVG/1.1/DTD/svg11.dtd">
<!-- Generated by graphviz version 8.0.5 (20230430.1635)
 -->
<!-- Pages: 1 -->
<svg width="1847pt" height="836pt"
 viewBox="0.00 0.00 1847.34 836.00" xmlns="http://www.w3.org/2000/svg" xmlns:xlink="http://www.w3.org/1999/xlink">
<g id="graph0" class="graph" transform="scale(1 1) rotate(0) translate(4 832)">
<polygon fill="white" stroke="none" points="-4,4 -4,-832 1843.34,-832 1843.34,4 -4,4"/>
<!-- Jumping Heavy Kick -->
<g id="node1" class="node">
<title>Jumping Heavy Kick</title>
<ellipse fill="none" stroke="black" cx="1259.87" cy="-810" rx="87.49" ry="18"/>
<text text-anchor="middle" x="1259.87" y="-804.58" font-family="Times New Roman,serif" font-size="14.00">Jumping Heavy Kick</text>
</g>
<!-- Crouching Heavy Kick -->
<g id="node2" class="node">
<title>Crouching Heavy Kick</title>
<ellipse fill="none" stroke="black" cx="579.87" cy="-378" rx="95.47" ry="18"/>
<text text-anchor="middle" x="579.87" y="-372.57" font-family="Times New Roman,serif" font-size="14.00">Crouching Heavy Kick</text>
</g>
<!-- Jumping Heavy Kick&#45;&gt;Crouching Heavy Kick -->
<g id="edge1" class="edge">
<title>Jumping Heavy Kick&#45;&gt;Crouching Heavy Kick</title>
<path fill="none" stroke="black" d="M1260.16,-791.56C1260.01,-760.89 1256.6,-696.02 1232.87,-648 1174.63,-530.17 1148.57,-490.48 1030.87,-432 961.44,-397.5 760.71,-406.26 683.87,-396 675.92,-394.94 667.65,-393.74 659.4,-392.49"/>
<polygon fill="black" stroke="black" points="660.01,-388.89 649.59,-390.82 658.94,-395.81 660.01,-388.89"/>
</g>
<!-- Double Shot -->
<g id="node9" class="node">
<title>Double Shot</title>
<ellipse fill="none" stroke="black" cx="1257.87" cy="-306" rx="57.55" ry="18"/>
<text text-anchor="middle" x="1257.87" y="-300.57" font-family="Times New Roman,serif" font-size="14.00">Double Shot</text>
</g>
<!-- Jumping Heavy Kick&#45;&gt;Double Shot -->
<g id="edge9" class="edge">
<title>Jumping Heavy Kick&#45;&gt;Double Shot</title>
<path fill="none" stroke="black" d="M1333.22,-799.84C1408.87,-785.82 1515.87,-751.11 1515.87,-667 1515.87,-667 1515.87,-667 1515.87,-449 1515.87,-406.66 1513.82,-387.78 1481.87,-360 1427.84,-313.03 1394.45,-340.8 1324.87,-324 1320.6,-322.97 1316.19,-321.89 1311.75,-320.79"/>
<polygon fill="black" stroke="black" points="1312.99,-317.24 1302.44,-318.21 1311.29,-324.03 1312.99,-317.24"/>
</g>
<!-- Standing Medium Punch -->
<g id="node12" class="node">
<title>Standing Medium Punch</title>
<ellipse fill="none" stroke="black" cx="1129.87" cy="-738" rx="101.96" ry="18"/>
<text text-anchor="middle" x="1129.87" y="-732.58" font-family="Times New Roman,serif" font-size="14.00">Standing Medium Punch</text>
</g>
<!-- Jumping Heavy Kick&#45;&gt;Standing Medium Punch -->
<g id="edge44" class="edge">
<title>Jumping Heavy Kick&#45;&gt;Standing Medium Punch</title>
<path fill="none" stroke="black" d="M1229.71,-792.76C1212.08,-783.27 1189.6,-771.17 1170.43,-760.84"/>
<polygon fill="black" stroke="black" points="1172.22,-757.29 1161.76,-755.63 1168.9,-763.46 1172.22,-757.29"/>
</g>
<!-- Crouching Light Kick -->
<g id="node3" class="node">
<title>Crouching Light Kick</title>
<ellipse fill="none" stroke="black" cx="751.87" cy="-450" rx="90.98" ry="18"/>
<text text-anchor="middle" x="751.87" y="-444.57" font-family="Times New Roman,serif" font-size="14.00">Crouching Light Kick</text>
</g>
<!-- Crouching Light Punch -->
<g id="node4" class="node">
<title>Crouching Light Punch</title>
<ellipse fill="none" stroke="black" cx="789.87" cy="-378" rx="96.97" ry="18"/>
<text text-anchor="middle" x="789.87" y="-372.57" font-family="Times New Roman,serif" font-size="14.00">Crouching Light Punch</text>
</g>
<!-- Crouching Light Kick&#45;&gt;Crouching Light Punch -->
<g id="edge2" class="edge">
<title>Crouching Light Kick&#45;&gt;Crouching Light Punch</title>
<path fill="none" stroke="black" d="M761.26,-431.7C765.54,-423.81 770.7,-414.3 775.45,-405.55"/>
<polygon fill="black" stroke="black" points="778.88,-407.56 780.58,-397.1 772.73,-404.22 778.88,-407.56"/>
</g>
<!-- Somersault Kick -->
<g id="node5" class="node">
<title>Somersault Kick</title>
<ellipse fill="none" stroke="black" cx="1144.87" cy="-234" rx="72.02" ry="18"/>
<text text-anchor="middle" x="1144.87" y="-228.57" font-family="Times New Roman,serif" font-size="14.00">Somersault Kick</text>
</g>
<!-- Crouching Light Punch&#45;&gt;Somersault Kick -->
<g id="edge3" class="edge">
<title>Crouching Light Punch&#45;&gt;Somersault Kick</title>
<path fill="none" stroke="black" d="M845.38,-362.87C880.44,-353.32 926.4,-339.62 965.87,-324 1016.16,-304.09 1071.55,-275.44 1107.2,-256.07"/>
<polygon fill="black" stroke="black" points="1108.62,-258.73 1115.71,-250.86 1105.26,-252.59 1108.62,-258.73"/>
</g>
<!-- Standing Light Kick -->
<g id="node33" class="node">
<title>Standing Light Kick</title>
<ellipse fill="none" stroke="black" cx="872.87" cy="-306" rx="84.5" ry="18"/>
<text text-anchor="middle" x="872.87" y="-300.57" font-family="Times New Roman,serif" font-size="14.00">Standing Light Kick</text>
</g>
<!-- Crouching Light Punch&#45;&gt;Standing Light Kick -->
<g id="edge47" class="edge">
<title>Crouching Light Punch&#45;&gt;Standing Light Kick</title>
<path fill="none" stroke="black" d="M809.96,-360.05C820.36,-351.28 833.22,-340.43 844.61,-330.83"/>
<polygon fill="black" stroke="black" points="846.57,-332.91 851.96,-323.79 842.06,-327.56 846.57,-332.91"/>
</g>
<!-- Crossfire Somersault -->
<g id="node30" class="node">
<title>Crossfire Somersault</title>
<ellipse fill="none" stroke="black" cx="471.87" cy="-162" rx="88.99" ry="18"/>
<text text-anchor="middle" x="471.87" y="-156.57" font-family="Times New Roman,serif" font-size="14.00">Crossfire Somersault</text>
</g>
<!-- Somersault Kick&#45;&gt;Crossfire Somersault -->
<g id="edge38" class="edge">
<title>Somersault Kick&#45;&gt;Crossfire Somersault</title>
<path fill="none" stroke="black" d="M1092.99,-221.17C1083.03,-219.21 1072.66,-217.37 1062.87,-216 845.28,-185.64 787.92,-206.81 569.87,-180 562.21,-179.06 554.23,-177.93 546.29,-176.7"/>
<polygon fill="black" stroke="black" points="546.94,-173.1 536.52,-174.98 545.84,-180.01 546.94,-173.1"/>
</g>
<!-- Burning Straight -->
<g id="node6" class="node">
<title>Burning Straight</title>
<ellipse fill="none" stroke="black" cx="594.87" cy="-522" rx="70.52" ry="18"/>
<text text-anchor="middle" x="594.87" y="-516.58" font-family="Times New Roman,serif" font-size="14.00">Burning Straight</text>
</g>
<!-- Sonic Boom -->
<g id="node7" class="node">
<title>Sonic Boom</title>
<ellipse fill="none" stroke="black" cx="594.87" cy="-594" rx="57.55" ry="18"/>
<text text-anchor="middle" x="594.87" y="-588.58" font-family="Times New Roman,serif" font-size="14.00">Sonic Boom</text>
</g>
<!-- Burning Straight&#45;&gt;Sonic Boom -->
<g id="edge4" class="edge">
<title>Burning Straight&#45;&gt;Sonic Boom</title>
<path fill="none" stroke="black" d="M600.76,-540.1C601.54,-547.54 601.79,-556.44 601.5,-564.81"/>
<polygon fill="black" stroke="black" points="597.95,-564.49 600.78,-574.7 604.93,-564.95 597.95,-564.49"/>
</g>
<!-- OD Sonic Boom -->
<g id="node14" class="node">
<title>OD Sonic Boom</title>
<ellipse fill="none" stroke="black" cx="456.87" cy="-234" rx="73.52" ry="18"/>
<text text-anchor="middle" x="456.87" y="-228.57" font-family="Times New Roman,serif" font-size="14.00">OD Sonic Boom</text>
</g>
<!-- Burning Straight&#45;&gt;OD Sonic Boom -->
<g id="edge32" class="edge">
<title>Burning Straight&#45;&gt;OD Sonic Boom</title>
<path fill="none" stroke="black" d="M595.86,-503.77C596.05,-484.08 593.32,-451.99 575.87,-432 544.8,-396.42 505.25,-432.99 475.87,-396 445.74,-358.08 447.53,-298.41 451.94,-263.35"/>
<polygon fill="black" stroke="black" points="455.54,-263.87 453.49,-253.47 448.61,-262.88 455.54,-263.87"/>
</g>
<!-- Sonic Hurricane -->
<g id="node19" class="node">
<title>Sonic Hurricane</title>
<ellipse fill="none" stroke="black" cx="962.87" cy="-90" rx="70.52" ry="18"/>
<text text-anchor="middle" x="962.87" y="-84.58" font-family="Times New Roman,serif" font-size="14.00">Sonic Hurricane</text>
</g>
<!-- Burning Straight&#45;&gt;Sonic Hurricane -->
<g id="edge23" class="edge">
<title>Burning Straight&#45;&gt;Sonic Hurricane</title>
<path fill="none" stroke="black" d="M535.07,-512.2C484.51,-503.47 417.53,-488.44 399.87,-468 305.41,-358.69 276.4,-250.63 373.87,-144 407.46,-107.25 728.29,-95.76 881.8,-92.35"/>
<polygon fill="black" stroke="black" points="881.63,-95.84 891.55,-92.12 881.48,-88.84 881.63,-95.84"/>
</g>
<!-- Cancel Drive Rush -->
<g id="node22" class="node">
<title>Cancel Drive Rush</title>
<ellipse fill="none" stroke="black" cx="940.87" cy="-450" rx="80.5" ry="18"/>
<text text-anchor="middle" x="940.87" y="-444.57" font-family="Times New Roman,serif" font-size="14.00">Cancel Drive Rush</text>
</g>
<!-- Burning Straight&#45;&gt;Cancel Drive Rush -->
<g id="edge16" class="edge">
<title>Burning Straight&#45;&gt;Cancel Drive Rush</title>
<path fill="none" stroke="black" d="M648.93,-510.06C709.06,-497.9 806.35,-478.21 871.92,-464.95"/>
<polygon fill="black" stroke="black" points="872.45,-468.21 881.56,-462.8 871.07,-461.35 872.45,-468.21"/>
</g>
<!-- Light Sonic Boom -->
<g id="node31" class="node">
<title>Light Sonic Boom</title>
<ellipse fill="none" stroke="black" cx="487.87" cy="-450" rx="79.01" ry="18"/>
<text text-anchor="middle" x="487.87" y="-444.57" font-family="Times New Roman,serif" font-size="14.00">Light Sonic Boom</text>
</g>
<!-- Burning Straight&#45;&gt;Light Sonic Boom -->
<g id="edge42" class="edge">
<title>Burning Straight&#45;&gt;Light Sonic Boom</title>
<path fill="none" stroke="black" d="M570.05,-504.76C555.7,-495.38 537.45,-483.44 521.79,-473.19"/>
<polygon fill="black" stroke="black" points="524.2,-469.94 513.92,-467.39 520.37,-475.79 524.2,-469.94"/>
</g>
<!-- Sonic Boom&#45;&gt;Burning Straight -->
<g id="edge41" class="edge">
<title>Sonic Boom&#45;&gt;Burning Straight</title>
<path fill="none" stroke="black" d="M588.95,-575.7C588.18,-568.24 587.94,-559.32 588.24,-550.97"/>
<polygon fill="black" stroke="black" points="591.79,-551.32 588.97,-541.1 584.81,-550.85 591.79,-551.32"/>
</g>
<!-- Drive Impact (Punish Counter) -->
<g id="node8" class="node">
<title>Drive Impact (Punish Counter)</title>
<ellipse fill="none" stroke="black" cx="1668.87" cy="-378" rx="124.92" ry="18"/>
<text text-anchor="middle" x="1668.87" y="-372.57" font-family="Times New Roman,serif" font-size="14.00">Drive Impact (Punish Counter)</text>
</g>
<!-- Drive Impact (Punish Counter)&#45;&gt;Double Shot -->
<g id="edge5" class="edge">
<title>Drive Impact (Punish Counter)&#45;&gt;Double Shot</title>
<path fill="none" stroke="black" d="M1577.55,-365.35C1507.98,-355.9 1409.99,-341.31 1324.87,-324 1320.43,-323.1 1315.85,-322.09 1311.27,-321.04"/>
<polygon fill="black" stroke="black" points="1312.16,-317.41 1301.62,-318.5 1310.53,-324.22 1312.16,-317.41"/>
</g>
<!-- Phantom Cutter -->
<g id="node11" class="node">
<title>Phantom Cutter</title>
<ellipse fill="none" stroke="black" cx="1402.87" cy="-306" rx="69.03" ry="18"/>
<text text-anchor="middle" x="1402.87" y="-300.57" font-family="Times New Roman,serif" font-size="14.00">Phantom Cutter</text>
</g>
<!-- Drive Impact (Punish Counter)&#45;&gt;Phantom Cutter -->
<g id="edge25" class="edge">
<title>Drive Impact (Punish Counter)&#45;&gt;Phantom Cutter</title>
<path fill="none" stroke="black" d="M1610.49,-361.64C1565.99,-349.93 1505,-333.88 1460.64,-322.2"/>
<polygon fill="black" stroke="black" points="1461.59,-318.57 1451.03,-319.41 1459.81,-325.34 1461.59,-318.57"/>
</g>
<!-- Double Shot&#45;&gt;Somersault Kick -->
<g id="edge6" class="edge">
<title>Double Shot&#45;&gt;Somersault Kick</title>
<path fill="none" stroke="black" d="M1232.79,-289.46C1217.32,-279.88 1197.24,-267.44 1180.17,-256.87"/>
<polygon fill="black" stroke="black" points="1182.4,-253.51 1172.05,-251.22 1178.71,-259.46 1182.4,-253.51"/>
</g>
<!-- Double Shot&#45;&gt;OD Sonic Boom -->
<g id="edge20" class="edge">
<title>Double Shot&#45;&gt;OD Sonic Boom</title>
<path fill="none" stroke="black" d="M1201.44,-301.8C1055.25,-293.35 666.7,-269.88 538.87,-252 532.68,-251.14 526.27,-250.08 519.88,-248.93"/>
<polygon fill="black" stroke="black" points="520.66,-245.33 510.18,-246.91 519.36,-252.2 520.66,-245.33"/>
</g>
<!-- Drive Impact (Block) -->
<g id="node10" class="node">
<title>Drive Impact (Block)</title>
<ellipse fill="none" stroke="black" cx="1322.87" cy="-594" rx="89.49" ry="18"/>
<text text-anchor="middle" x="1322.87" y="-588.58" font-family="Times New Roman,serif" font-size="14.00">Drive Impact (Block)</text>
</g>
<!-- Drive Impact (Block)&#45;&gt;Burning Straight -->
<g id="edge22" class="edge">
<title>Drive Impact (Block)&#45;&gt;Burning Straight</title>
<path fill="none" stroke="black" d="M1243.57,-585.38C1102.47,-571.81 809.63,-543.65 670.9,-530.31"/>
<polygon fill="black" stroke="black" points="671.27,-526.73 660.98,-529.26 670.6,-533.7 671.27,-526.73"/>
</g>
<!-- Drive Impact (Block)&#45;&gt;Phantom Cutter -->
<g id="edge7" class="edge">
<title>Drive Impact (Block)&#45;&gt;Phantom Cutter</title>
<path fill="none" stroke="black" d="M1376.23,-579.12C1490.59,-548.19 1752.95,-470.44 1802.87,-396 1811.78,-382.71 1813.41,-372.03 1802.87,-360 1781.98,-336.16 1590.72,-319.54 1480.41,-311.85"/>
<polygon fill="black" stroke="black" points="1480.89,-308.3 1470.67,-311.11 1480.41,-315.29 1480.89,-308.3"/>
</g>
<!-- Phantom Cutter&#45;&gt;Somersault Kick -->
<g id="edge8" class="edge">
<title>Phantom Cutter&#45;&gt;Somersault Kick</title>
<path fill="none" stroke="black" d="M1356.14,-292.32C1313.17,-280.66 1249.28,-263.33 1203.02,-250.78"/>
<polygon fill="black" stroke="black" points="1204.12,-247.18 1193.55,-247.94 1202.28,-253.93 1204.12,-247.18"/>
</g>
<!-- OD Somersault Kick -->
<g id="node17" class="node">
<title>OD Somersault Kick</title>
<ellipse fill="none" stroke="black" cx="1318.87" cy="-18" rx="87.99" ry="18"/>
<text text-anchor="middle" x="1318.87" y="-12.57" font-family="Times New Roman,serif" font-size="14.00">OD Somersault Kick</text>
</g>
<!-- Phantom Cutter&#45;&gt;OD Somersault Kick -->
<g id="edge59" class="edge">
<title>Phantom Cutter&#45;&gt;OD Somersault Kick</title>
<path fill="none" stroke="black" d="M1397.86,-287.97C1383.86,-240.29 1344.18,-105.18 1326.98,-46.63"/>
<polygon fill="black" stroke="black" points="1330.12,-45.91 1323.95,-37.31 1323.41,-47.89 1330.12,-45.91"/>
</g>
<!-- Heavy Somersault Kick -->
<g id="node21" class="node">
<title>Heavy Somersault Kick</title>
<ellipse fill="none" stroke="black" cx="1178.87" cy="-162" rx="97.97" ry="18"/>
<text text-anchor="middle" x="1178.87" y="-156.57" font-family="Times New Roman,serif" font-size="14.00">Heavy Somersault Kick</text>
</g>
<!-- Phantom Cutter&#45;&gt;Heavy Somersault Kick -->
<g id="edge26" class="edge">
<title>Phantom Cutter&#45;&gt;Heavy Somersault Kick</title>
<path fill="none" stroke="black" d="M1377.6,-288.99C1337.65,-263.66 1259.77,-214.28 1214.26,-185.44"/>
<polygon fill="black" stroke="black" points="1216.39,-182.01 1206.07,-179.61 1212.64,-187.92 1216.39,-182.01"/>
</g>
<!-- Standing Medium Punch&#45;&gt;Double Shot -->
<g id="edge19" class="edge">
<title>Standing Medium Punch&#45;&gt;Double Shot</title>
<path fill="none" stroke="black" d="M1217.47,-728.52C1290.06,-720.13 1386.4,-705.43 1418.87,-684 1458.47,-657.86 1477.87,-642.46 1477.87,-595 1477.87,-595 1477.87,-595 1477.87,-449 1477.87,-408.55 1486.78,-389.27 1458.87,-360 1457.55,-358.62 1370.52,-336 1311.42,-320.76"/>
<polygon fill="black" stroke="black" points="1312.66,-317.21 1302.1,-318.1 1310.91,-323.99 1312.66,-317.21"/>
</g>
<!-- Crouching Medium Punch -->
<g id="node13" class="node">
<title>Crouching Medium Punch</title>
<ellipse fill="none" stroke="black" cx="342.87" cy="-666" rx="108.45" ry="18"/>
<text text-anchor="middle" x="342.87" y="-660.58" font-family="Times New Roman,serif" font-size="14.00">Crouching Medium Punch</text>
</g>
<!-- Standing Medium Punch&#45;&gt;Crouching Medium Punch -->
<g id="edge10" class="edge">
<title>Standing Medium Punch&#45;&gt;Crouching Medium Punch</title>
<path fill="none" stroke="black" d="M1056.83,-725.03C1044.19,-723.18 1031.16,-721.42 1018.87,-720 821.04,-697.13 589.47,-681.34 455.14,-673.26"/>
<polygon fill="black" stroke="black" points="455.64,-669.73 445.45,-672.62 455.22,-676.71 455.64,-669.73"/>
</g>
<!-- Sonic Boom (Perfect) -->
<g id="node32" class="node">
<title>Sonic Boom (Perfect)</title>
<ellipse fill="none" stroke="black" cx="1131.87" cy="-666" rx="92.48" ry="18"/>
<text text-anchor="middle" x="1131.87" y="-660.58" font-family="Times New Roman,serif" font-size="14.00">Sonic Boom (Perfect)</text>
</g>
<!-- Standing Medium Punch&#45;&gt;Sonic Boom (Perfect) -->
<g id="edge45" class="edge">
<title>Standing Medium Punch&#45;&gt;Sonic Boom (Perfect)</title>
<path fill="none" stroke="black" d="M1130.36,-719.7C1130.57,-712.24 1130.83,-703.32 1131.07,-694.97"/>
<polygon fill="black" stroke="black" points="1134.59,-695.2 1131.38,-685.1 1127.59,-695 1134.59,-695.2"/>
</g>
<!-- Crouching Medium Punch&#45;&gt;Somersault Kick -->
<g id="edge37" class="edge">
<title>Crouching Medium Punch&#45;&gt;Somersault Kick</title>
<path fill="none" stroke="black" d="M342.87,-647.51C342.87,-620.71 342.87,-567.87 342.87,-523 342.87,-523 342.87,-523 342.87,-449 342.87,-377.88 410.67,-388.43 475.87,-360 719.03,-253.98 801.22,-295.7 1062.87,-252 1068.93,-250.99 1075.23,-249.85 1081.51,-248.64"/>
<polygon fill="black" stroke="black" points="1081.91,-251.94 1091.05,-246.58 1080.56,-245.07 1081.91,-251.94"/>
</g>
<!-- Crouching Medium Punch&#45;&gt;Sonic Boom -->
<g id="edge40" class="edge">
<title>Crouching Medium Punch&#45;&gt;Sonic Boom</title>
<path fill="none" stroke="black" d="M396.93,-649.98C439.99,-638.02 499.91,-621.38 542.52,-609.54"/>
<polygon fill="black" stroke="black" points="543.26,-612.69 551.96,-606.64 541.39,-605.95 543.26,-612.69"/>
</g>
<!-- Crouching Medium Punch&#45;&gt;OD Sonic Boom -->
<g id="edge11" class="edge">
<title>Crouching Medium Punch&#45;&gt;OD Sonic Boom</title>
<path fill="none" stroke="black" d="M335.18,-647.91C324.07,-621.62 304.87,-569.45 304.87,-523 304.87,-523 304.87,-523 304.87,-377 304.87,-318.58 365.56,-277.29 410.24,-254.81"/>
<polygon fill="black" stroke="black" points="411.61,-257.55 419.07,-250.03 408.55,-251.26 411.61,-257.55"/>
</g>
<!-- Crouching Medium Punch&#45;&gt;Light Sonic Boom -->
<g id="edge50" class="edge">
<title>Crouching Medium Punch&#45;&gt;Light Sonic Boom</title>
<path fill="none" stroke="black" d="M354.49,-647.85C379.78,-610.52 439.96,-521.69 470.07,-477.26"/>
<polygon fill="black" stroke="black" points="473.48,-479.47 476.19,-469.23 467.68,-475.55 473.48,-479.47"/>
</g>
<!-- Light Sonic Boom (Perfect) -->
<g id="node36" class="node">
<title>Light Sonic Boom (Perfect)</title>
<ellipse fill="none" stroke="black" cx="162.87" cy="-594" rx="113.94" ry="18"/>
<text text-anchor="middle" x="162.87" y="-588.58" font-family="Times New Roman,serif" font-size="14.00">Light Sonic Boom (Perfect)</text>
</g>
<!-- Crouching Medium Punch&#45;&gt;Light Sonic Boom (Perfect) -->
<g id="edge54" class="edge">
<title>Crouching Medium Punch&#45;&gt;Light Sonic Boom (Perfect)</title>
<path fill="none" stroke="black" d="M301.57,-648.94C275.59,-638.84 241.87,-625.72 214.18,-614.96"/>
<polygon fill="black" stroke="black" points="215.87,-611.47 205.28,-611.11 213.33,-617.99 215.87,-611.47"/>
</g>
<!-- OD Sonic Boom&#45;&gt;Heavy Somersault Kick -->
<g id="edge21" class="edge">
<title>OD Sonic Boom&#45;&gt;Heavy Somersault Kick</title>
<path fill="none" stroke="black" d="M509.17,-221.04C519,-219.11 529.21,-217.32 538.87,-216 774.1,-183.83 835.94,-206.65 1071.87,-180 1080.44,-179.03 1089.37,-177.86 1098.26,-176.6"/>
<polygon fill="black" stroke="black" points="1098.67,-179.93 1108.06,-175.02 1097.66,-173.01 1098.67,-179.93"/>
</g>
<!-- Sonic Break -->
<g id="node28" class="node">
<title>Sonic Break</title>
<ellipse fill="none" stroke="black" cx="988.87" cy="-162" rx="56.05" ry="18"/>
<text text-anchor="middle" x="988.87" y="-156.57" font-family="Times New Roman,serif" font-size="14.00">Sonic Break</text>
</g>
<!-- OD Sonic Boom&#45;&gt;Sonic Break -->
<g id="edge33" class="edge">
<title>OD Sonic Boom&#45;&gt;Sonic Break</title>
<path fill="none" stroke="black" d="M509.64,-221.16C519.33,-219.24 529.38,-217.42 538.87,-216 708.82,-190.52 754.62,-209.84 923.87,-180 928.32,-179.21 932.92,-178.28 937.52,-177.25"/>
<polygon fill="black" stroke="black" points="938.25,-180.44 947.17,-174.72 936.64,-173.62 938.25,-180.44"/>
</g>
<!-- Crouching Light Punch (Counter) -->
<g id="node15" class="node">
<title>Crouching Light Punch (Counter)</title>
<ellipse fill="none" stroke="black" cx="1039.87" cy="-378" rx="135.39" ry="18"/>
<text text-anchor="middle" x="1039.87" y="-372.57" font-family="Times New Roman,serif" font-size="14.00">Crouching Light Punch (Counter)</text>
</g>
<!-- Crouching Light Punch (Counter)&#45;&gt;Double Shot -->
<g id="edge12" class="edge">
<title>Crouching Light Punch (Counter)&#45;&gt;Double Shot</title>
<path fill="none" stroke="black" d="M1090.15,-360.85C1125.75,-349.42 1173.24,-334.17 1208.6,-322.82"/>
<polygon fill="black" stroke="black" points="1209.25,-325.97 1217.7,-319.58 1207.11,-319.3 1209.25,-325.97"/>
</g>
<!-- Crouching Medium Kick (Counter) -->
<g id="node16" class="node">
<title>Crouching Medium Kick (Counter)</title>
<ellipse fill="none" stroke="black" cx="1529.87" cy="-90" rx="140.88" ry="18"/>
<text text-anchor="middle" x="1529.87" y="-84.58" font-family="Times New Roman,serif" font-size="14.00">Crouching Medium Kick (Counter)</text>
</g>
<!-- Crouching Medium Kick (Counter)&#45;&gt;OD Somersault Kick -->
<g id="edge13" class="edge">
<title>Crouching Medium Kick (Counter)&#45;&gt;OD Somersault Kick</title>
<path fill="none" stroke="black" d="M1480.66,-72.68C1448.8,-62.1 1407.24,-48.32 1374.22,-37.36"/>
<polygon fill="black" stroke="black" points="1375.42,-33.74 1364.82,-33.92 1373.21,-40.39 1375.42,-33.74"/>
</g>
<!-- Medium Somersault Kick -->
<g id="node38" class="node">
<title>Medium Somersault Kick</title>
<ellipse fill="none" stroke="black" cx="1529.87" cy="-18" rx="104.96" ry="18"/>
<text text-anchor="middle" x="1529.87" y="-12.57" font-family="Times New Roman,serif" font-size="14.00">Medium Somersault Kick</text>
</g>
<!-- Crouching Medium Kick (Counter)&#45;&gt;Medium Somersault Kick -->
<g id="edge57" class="edge">
<title>Crouching Medium Kick (Counter)&#45;&gt;Medium Somersault Kick</title>
<path fill="none" stroke="black" d="M1529.87,-71.7C1529.87,-64.24 1529.87,-55.32 1529.87,-46.97"/>
<polygon fill="black" stroke="black" points="1533.37,-47.1 1529.87,-37.1 1526.37,-47.1 1533.37,-47.1"/>
</g>
<!-- Light Somersault Kick -->
<g id="node39" class="node">
<title>Light Somersault Kick</title>
<ellipse fill="none" stroke="black" cx="1745.87" cy="-18" rx="93.48" ry="18"/>
<text text-anchor="middle" x="1745.87" y="-12.57" font-family="Times New Roman,serif" font-size="14.00">Light Somersault Kick</text>
</g>
<!-- Crouching Medium Kick (Counter)&#45;&gt;Light Somersault Kick -->
<g id="edge58" class="edge">
<title>Crouching Medium Kick (Counter)&#45;&gt;Light Somersault Kick</title>
<path fill="none" stroke="black" d="M1579.96,-72.76C1612.6,-62.19 1655.26,-48.36 1689.15,-37.38"/>
<polygon fill="black" stroke="black" points="1689.93,-40.48 1698.36,-34.07 1687.77,-33.82 1689.93,-40.48"/>
</g>
<!-- Crouching Medium Kick (Punish Counter) -->
<g id="node18" class="node">
<title>Crouching Medium Kick (Punish Counter)</title>
<ellipse fill="none" stroke="black" cx="746.87" cy="-162" rx="168.33" ry="18"/>
<text text-anchor="middle" x="746.87" y="-156.57" font-family="Times New Roman,serif" font-size="14.00">Crouching Medium Kick (Punish Counter)</text>
</g>
<!-- Crouching Medium Kick (Punish Counter)&#45;&gt;Sonic Hurricane -->
<g id="edge14" class="edge">
<title>Crouching Medium Kick (Punish Counter)&#45;&gt;Sonic Hurricane</title>
<path fill="none" stroke="black" d="M798.05,-144.41C831.86,-133.46 876.04,-119.14 910.15,-108.08"/>
<polygon fill="black" stroke="black" points="910.96,-111.18 919.39,-104.76 908.8,-104.52 910.96,-111.18"/>
</g>
<!-- Sonic Hurricane&#45;&gt;OD Somersault Kick -->
<g id="edge24" class="edge">
<title>Sonic Hurricane&#45;&gt;OD Somersault Kick</title>
<path fill="none" stroke="black" d="M1017.32,-78.29C1078.61,-66.24 1178.46,-46.61 1246.33,-33.26"/>
<polygon fill="black" stroke="black" points="1246.8,-36.54 1255.93,-31.18 1245.45,-29.67 1246.8,-36.54"/>
</g>
<!-- Phantom Cutter (Punish Counter) -->
<g id="node20" class="node">
<title>Phantom Cutter (Punish Counter)</title>
<ellipse fill="none" stroke="black" cx="682.87" cy="-234" rx="134.9" ry="18"/>
<text text-anchor="middle" x="682.87" y="-228.57" font-family="Times New Roman,serif" font-size="14.00">Phantom Cutter (Punish Counter)</text>
</g>
<!-- Phantom Cutter (Punish Counter)&#45;&gt;Heavy Somersault Kick -->
<g id="edge15" class="edge">
<title>Phantom Cutter (Punish Counter)&#45;&gt;Heavy Somersault Kick</title>
<path fill="none" stroke="black" d="M776.88,-220.78C855.71,-210.4 971.23,-194.85 1071.87,-180 1079.82,-178.83 1088.11,-177.57 1096.39,-176.29"/>
<polygon fill="black" stroke="black" points="1096.9,-179.6 1106.24,-174.6 1095.82,-172.68 1096.9,-179.6"/>
</g>
<!-- Heavy Somersault Kick&#45;&gt;Sonic Hurricane -->
<g id="edge27" class="edge">
<title>Heavy Somersault Kick&#45;&gt;Sonic Hurricane</title>
<path fill="none" stroke="black" d="M1132,-145.81C1097.67,-134.69 1051.05,-119.58 1015.45,-108.04"/>
<polygon fill="black" stroke="black" points="1016.84,-104.49 1006.25,-104.74 1014.68,-111.15 1016.84,-104.49"/>
</g>
<!-- (After drive rush) Rolling Sobat -->
<g id="node23" class="node">
<title>(After drive rush) Rolling Sobat</title>
<ellipse fill="none" stroke="black" cx="1321.87" cy="-378" rx="128.41" ry="18"/>
<text text-anchor="middle" x="1321.87" y="-372.57" font-family="Times New Roman,serif" font-size="14.00">(After drive rush) Rolling Sobat</text>
</g>
<!-- Cancel Drive Rush&#45;&gt;(After drive rush) Rolling Sobat -->
<g id="edge17" class="edge">
<title>Cancel Drive Rush&#45;&gt;(After drive rush) Rolling Sobat</title>
<path fill="none" stroke="black" d="M1001.66,-437.83C1064.8,-426.23 1164.16,-407.97 1235.46,-394.88"/>
<polygon fill="black" stroke="black" points="1236,-398.15 1245.2,-392.9 1234.74,-391.27 1236,-398.15"/>
</g>
<!-- (After drive rush) Rolling Sobat&#45;&gt;Double Shot -->
<g id="edge18" class="edge">
<title>(After drive rush) Rolling Sobat&#45;&gt;Double Shot</title>
<path fill="none" stroke="black" d="M1306.04,-359.7C1298.34,-351.27 1288.93,-340.97 1280.48,-331.73"/>
<polygon fill="black" stroke="black" points="1283.39,-329.64 1274.06,-324.62 1278.23,-334.36 1283.39,-329.64"/>
</g>
<!-- (After drive rush) Rolling Sobat&#45;&gt;Standing Medium Punch -->
<g id="edge39" class="edge">
<title>(After drive rush) Rolling Sobat&#45;&gt;Standing Medium Punch</title>
<path fill="none" stroke="black" d="M1350.13,-396.01C1385.04,-419.41 1439.87,-465.07 1439.87,-521 1439.87,-595 1439.87,-595 1439.87,-595 1439.87,-686.44 1327,-719.23 1237.47,-730.86"/>
<polygon fill="black" stroke="black" points="1237.18,-727.49 1227.68,-732.17 1238.03,-734.44 1237.18,-727.49"/>
</g>
<!-- Parry Drive Rush -->
<g id="node24" class="node">
<title>Parry Drive Rush</title>
<ellipse fill="none" stroke="black" cx="318.87" cy="-810" rx="75.02" ry="18"/>
<text text-anchor="middle" x="318.87" y="-804.58" font-family="Times New Roman,serif" font-size="14.00">Parry Drive Rush</text>
</g>
<!-- (After drive rush) Crouching Medium Kick -->
<g id="node25" class="node">
<title>(After drive rush) Crouching Medium Kick</title>
<ellipse fill="none" stroke="black" cx="486.87" cy="-738" rx="169.33" ry="18"/>
<text text-anchor="middle" x="486.87" y="-732.58" font-family="Times New Roman,serif" font-size="14.00">(After drive rush) Crouching Medium Kick</text>
</g>
<!-- Parry Drive Rush&#45;&gt;(After drive rush) Crouching Medium Kick -->
<g id="edge28" class="edge">
<title>Parry Drive Rush&#45;&gt;(After drive rush) Crouching Medium Kick</title>
<path fill="none" stroke="black" d="M355.32,-793.81C379,-783.94 410.21,-770.94 436.28,-760.08"/>
<polygon fill="black" stroke="black" points="437.48,-762.95 445.36,-755.88 434.78,-756.49 437.48,-762.95"/>
</g>
<!-- (After drive rush) Full Bullet Magnum -->
<g id="node29" class="node">
<title>(After drive rush) Full Bullet Magnum</title>
<ellipse fill="none" stroke="black" cx="149.87" cy="-738" rx="149.87" ry="18"/>
<text text-anchor="middle" x="149.87" y="-732.58" font-family="Times New Roman,serif" font-size="14.00">(After drive rush) Full Bullet Magnum</text>
</g>
<!-- Parry Drive Rush&#45;&gt;(After drive rush) Full Bullet Magnum -->
<g id="edge35" class="edge">
<title>Parry Drive Rush&#45;&gt;(After drive rush) Full Bullet Magnum</title>
<path fill="none" stroke="black" d="M282.61,-793.98C258.53,-784.01 226.59,-770.78 200.07,-759.8"/>
<polygon fill="black" stroke="black" points="201.78,-756.3 191.2,-755.71 199.1,-762.77 201.78,-756.3"/>
</g>
<!-- Standing Heavy Punch -->
<g id="node26" class="node">
<title>Standing Heavy Punch</title>
<ellipse fill="none" stroke="black" cx="824.87" cy="-666" rx="94.98" ry="18"/>
<text text-anchor="middle" x="824.87" y="-660.58" font-family="Times New Roman,serif" font-size="14.00">Standing Heavy Punch</text>
</g>
<!-- (After drive rush) Crouching Medium Kick&#45;&gt;Standing Heavy Punch -->
<g id="edge29" class="edge">
<title>(After drive rush) Crouching Medium Kick&#45;&gt;Standing Heavy Punch</title>
<path fill="none" stroke="black" d="M561.88,-721.46C618.52,-709.73 695.81,-693.73 751.94,-682.1"/>
<polygon fill="black" stroke="black" points="752.43,-685.37 761.51,-679.91 751.01,-678.51 752.43,-685.37"/>
</g>
<!-- Standing Heavy Punch&#45;&gt;Cancel Drive Rush -->
<g id="edge53" class="edge">
<title>Standing Heavy Punch&#45;&gt;Cancel Drive Rush</title>
<path fill="none" stroke="black" d="M834.16,-647.85C854.31,-610.68 902.14,-522.44 926.33,-477.82"/>
<polygon fill="black" stroke="black" points="929.84,-479.69 931.52,-469.23 923.68,-476.36 929.84,-479.69"/>
</g>
<!-- Solid Puncher -->
<g id="node27" class="node">
<title>Solid Puncher</title>
<ellipse fill="none" stroke="black" cx="751.87" cy="-594" rx="63.04" ry="18"/>
<text text-anchor="middle" x="751.87" y="-588.58" font-family="Times New Roman,serif" font-size="14.00">Solid Puncher</text>
</g>
<!-- Standing Heavy Punch&#45;&gt;Solid Puncher -->
<g id="edge30" class="edge">
<title>Standing Heavy Punch&#45;&gt;Solid Puncher</title>
<path fill="none" stroke="black" d="M807.19,-648.05C798,-639.24 786.62,-628.33 776.57,-618.69"/>
<polygon fill="black" stroke="black" points="779.51,-616.7 769.87,-612.31 774.67,-621.75 779.51,-616.7"/>
</g>
<!-- Solid Puncher&#45;&gt;Burning Straight -->
<g id="edge31" class="edge">
<title>Solid Puncher&#45;&gt;Burning Straight</title>
<path fill="none" stroke="black" d="M718.95,-578.33C695.62,-567.92 664.05,-553.85 638.6,-542.5"/>
<polygon fill="black" stroke="black" points="640.38,-539.01 629.82,-538.14 637.53,-545.41 640.38,-539.01"/>
</g>
<!-- Sonic Break&#45;&gt;Sonic Break -->
<g id="edge34" class="edge">
<title>Sonic Break&#45;&gt;Sonic Break</title>
<path fill="none" stroke="black" d="M1028.1,-175.2C1046.64,-176.74 1062.92,-172.34 1062.92,-162 1062.92,-153.76 1052.58,-149.3 1039,-148.6"/>
<polygon fill="black" stroke="black" points="1039.04,-145.11 1029.1,-148.8 1039.17,-152.11 1039.04,-145.11"/>
</g>
<!-- (After drive rush) Full Bullet Magnum&#45;&gt;Crouching Medium Punch -->
<g id="edge36" class="edge">
<title>(After drive rush) Full Bullet Magnum&#45;&gt;Crouching Medium Punch</title>
<path fill="none" stroke="black" d="M195.6,-720.41C223.62,-710.25 259.62,-697.19 289.02,-686.53"/>
<polygon fill="black" stroke="black" points="289.91,-689.57 298.11,-682.87 287.52,-682.99 289.91,-689.57"/>
</g>
<!-- Light Sonic Boom&#45;&gt;Crouching Heavy Kick -->
<g id="edge43" class="edge">
<title>Light Sonic Boom&#45;&gt;Crouching Heavy Kick</title>
<path fill="none" stroke="black" d="M509.67,-432.41C521.41,-423.48 536.1,-412.3 548.99,-402.49"/>
<polygon fill="black" stroke="black" points="550.74,-404.8 556.58,-395.96 546.5,-399.23 550.74,-404.8"/>
</g>
<!-- Light Sonic Boom&#45;&gt;Heavy Somersault Kick -->
<g id="edge51" class="edge">
<title>Light Sonic Boom&#45;&gt;Heavy Somersault Kick</title>
<path fill="none" stroke="black" d="M478.91,-431.8C470.22,-412.44 460.4,-380.94 475.87,-360 572.83,-228.71 685.91,-334.29 826.87,-252 846.96,-240.27 844.05,-226.39 864.87,-216 870.09,-213.39 1005.35,-191.12 1096.62,-176.28"/>
<polygon fill="black" stroke="black" points="1096.93,-179.62 1106.24,-174.56 1095.81,-172.71 1096.93,-179.62"/>
</g>
<!-- Sonic Boom (Perfect)&#45;&gt;Crouching Light Punch -->
<g id="edge46" class="edge">
<title>Sonic Boom (Perfect)&#45;&gt;Crouching Light Punch</title>
<path fill="none" stroke="black" d="M1129.74,-647.79C1123.43,-604.31 1100.62,-489.47 1030.87,-432 1018.26,-421.61 935.14,-404.79 870,-392.89"/>
<polygon fill="black" stroke="black" points="870.76,-389.29 860.3,-390.95 869.51,-396.18 870.76,-389.29"/>
</g>
<!-- Medium Sonic Boom -->
<g id="node34" class="node">
<title>Medium Sonic Boom</title>
<ellipse fill="none" stroke="black" cx="963.87" cy="-234" rx="90.48" ry="18"/>
<text text-anchor="middle" x="963.87" y="-228.57" font-family="Times New Roman,serif" font-size="14.00">Medium Sonic Boom</text>
</g>
<!-- Standing Light Kick&#45;&gt;Medium Sonic Boom -->
<g id="edge48" class="edge">
<title>Standing Light Kick&#45;&gt;Medium Sonic Boom</title>
<path fill="none" stroke="black" d="M894.43,-288.41C906.13,-279.41 920.78,-268.14 933.61,-258.27"/>
<polygon fill="black" stroke="black" points="935.35,-260.58 941.14,-251.71 931.08,-255.04 935.35,-260.58"/>
</g>
<!-- Medium Sonic Boom&#45;&gt;Heavy Somersault Kick -->
<g id="edge49" class="edge">
<title>Medium Sonic Boom&#45;&gt;Heavy Somersault Kick</title>
<path fill="none" stroke="black" d="M1009.72,-218.07C1042.61,-207.36 1087.13,-192.87 1122.23,-181.44"/>
<polygon fill="black" stroke="black" points="1122.91,-184.57 1131.33,-178.15 1120.74,-177.92 1122.91,-184.57"/>
</g>
<!-- Standing Medium Punch (Punish Counter) -->
<g id="node35" class="node">
<title>Standing Medium Punch (Punish Counter)</title>
<ellipse fill="none" stroke="black" cx="841.87" cy="-738" rx="167.83" ry="18"/>
<text text-anchor="middle" x="841.87" y="-732.58" font-family="Times New Roman,serif" font-size="14.00">Standing Medium Punch (Punish Counter)</text>
</g>
<!-- Standing Medium Punch (Punish Counter)&#45;&gt;Standing Heavy Punch -->
<g id="edge52" class="edge">
<title>Standing Medium Punch (Punish Counter)&#45;&gt;Standing Heavy Punch</title>
<path fill="none" stroke="black" d="M837.66,-719.7C835.83,-712.15 833.64,-703.12 831.59,-694.68"/>
<polygon fill="black" stroke="black" points="834.78,-694 829.02,-685.1 827.98,-695.65 834.78,-694"/>
</g>
<!-- Standing Heavy Kick -->
<g id="node37" class="node">
<title>Standing Heavy Kick</title>
<ellipse fill="none" stroke="black" cx="175.87" cy="-522" rx="88.99" ry="18"/>
<text text-anchor="middle" x="175.87" y="-516.58" font-family="Times New Roman,serif" font-size="14.00">Standing Heavy Kick</text>
</g>
<!-- Light Sonic Boom (Perfect)&#45;&gt;Standing Heavy Kick -->
<g id="edge55" class="edge">
<title>Light Sonic Boom (Perfect)&#45;&gt;Standing Heavy Kick</title>
<path fill="none" stroke="black" d="M166.08,-575.7C167.48,-568.15 169.16,-559.12 170.72,-550.68"/>
<polygon fill="black" stroke="black" points="174.3,-551.58 172.69,-541.1 167.42,-550.3 174.3,-551.58"/>
</g>
<!-- Standing Heavy Kick&#45;&gt;Crossfire Somersault -->
<g id="edge56" class="edge">
<title>Standing Heavy Kick&#45;&gt;Crossfire Somersault</title>
<path fill="none" stroke="black" d="M185.4,-503.66C198.87,-477.47 221.87,-425.9 221.87,-379 221.87,-379 221.87,-379 221.87,-305 221.87,-226.5 316.21,-190.86 388.99,-175.04"/>
<polygon fill="black" stroke="black" points="389.47,-178.31 398.55,-172.85 388.05,-171.46 389.47,-178.31"/>
</g>
</g>
</svg>
