<?xml version="1.0" encoding="UTF-8" standalone="no"?>
<!DOCTYPE svg PUBLIC "-//W3C//DTD SVG 1.1//EN"
 "http://www.w3.org/Graphics/SVG/1.1/DTD/svg11.dtd">
<!-- Generated by graphviz version 8.0.5 (20230430.1635)
 -->
<!-- Pages: 1 -->
<svg width="1869pt" height="836pt"
 viewBox="0.00 0.00 1868.89 836.00" xmlns="http://www.w3.org/2000/svg" xmlns:xlink="http://www.w3.org/1999/xlink">
<g id="graph0" class="graph" transform="scale(1 1) rotate(0) translate(4 832)">
<polygon fill="white" stroke="none" points="-4,4 -4,-832 1864.89,-832 1864.89,4 -4,4"/>
<!-- Jumping Heavy Kick -->
<g id="node1" class="node">
<title>Jumping Heavy Kick</title>
<ellipse fill="none" stroke="black" cx="1761.99" cy="-810" rx="87.49" ry="18"/>
<text text-anchor="middle" x="1761.99" y="-804.58" font-family="Times New Roman,serif" font-size="14.00">Jumping Heavy Kick</text>
</g>
<!-- Crouching Heavy Kick -->
<g id="node2" class="node">
<title>Crouching Heavy Kick</title>
<ellipse fill="none" stroke="black" cx="1280.99" cy="-378" rx="95.47" ry="18"/>
<text text-anchor="middle" x="1280.99" y="-372.57" font-family="Times New Roman,serif" font-size="14.00">Crouching Heavy Kick</text>
</g>
<!-- Jumping Heavy Kick&#45;&gt;Crouching Heavy Kick -->
<g id="edge1" class="edge">
<title>Jumping Heavy Kick&#45;&gt;Crouching Heavy Kick</title>
<path fill="none" stroke="black" d="M1764.64,-791.83C1768.54,-760.45 1772.47,-692.95 1742.99,-648 1691.58,-569.62 1433.69,-447.47 1327.15,-399.41"/>
<polygon fill="black" stroke="black" points="1328.88,-395.9 1318.32,-394.99 1326.01,-402.28 1328.88,-395.9"/>
</g>
<!-- Double Shot -->
<g id="node9" class="node">
<title>Double Shot</title>
<ellipse fill="none" stroke="black" cx="1031.99" cy="-306" rx="57.55" ry="18"/>
<text text-anchor="middle" x="1031.99" y="-300.57" font-family="Times New Roman,serif" font-size="14.00">Double Shot</text>
</g>
<!-- Jumping Heavy Kick&#45;&gt;Double Shot -->
<g id="edge9" class="edge">
<title>Jumping Heavy Kick&#45;&gt;Double Shot</title>
<path fill="none" stroke="black" d="M1783.29,-792.24C1811.58,-767.93 1857.99,-719.97 1857.99,-667 1857.99,-667 1857.99,-667 1857.99,-449 1857.99,-408.55 1869.58,-386.46 1838.99,-360 1783.76,-312.24 1285.53,-307.1 1100.63,-306.85"/>
<polygon fill="black" stroke="black" points="1100.71,-303.35 1090.7,-306.84 1100.7,-310.35 1100.71,-303.35"/>
</g>
<!-- Standing Medium Punch -->
<g id="node12" class="node">
<title>Standing Medium Punch</title>
<ellipse fill="none" stroke="black" cx="1055.99" cy="-738" rx="101.96" ry="18"/>
<text text-anchor="middle" x="1055.99" y="-732.58" font-family="Times New Roman,serif" font-size="14.00">Standing Medium Punch</text>
</g>
<!-- Jumping Heavy Kick&#45;&gt;Standing Medium Punch -->
<g id="edge45" class="edge">
<title>Jumping Heavy Kick&#45;&gt;Standing Medium Punch</title>
<path fill="none" stroke="black" d="M1680.01,-803.34C1565.11,-795.04 1349.74,-778.11 1166.99,-756 1158.22,-754.94 1149.09,-753.72 1139.98,-752.44"/>
<polygon fill="black" stroke="black" points="1140.74,-748.87 1130.34,-750.9 1139.74,-755.79 1140.74,-748.87"/>
</g>
<!-- Crouching Light Kick -->
<g id="node3" class="node">
<title>Crouching Light Kick</title>
<ellipse fill="none" stroke="black" cx="212.99" cy="-450" rx="90.98" ry="18"/>
<text text-anchor="middle" x="212.99" y="-444.57" font-family="Times New Roman,serif" font-size="14.00">Crouching Light Kick</text>
</g>
<!-- Crouching Light Punch -->
<g id="node4" class="node">
<title>Crouching Light Punch</title>
<ellipse fill="none" stroke="black" cx="218.99" cy="-378" rx="96.97" ry="18"/>
<text text-anchor="middle" x="218.99" y="-372.57" font-family="Times New Roman,serif" font-size="14.00">Crouching Light Punch</text>
</g>
<!-- Crouching Light Kick&#45;&gt;Crouching Light Punch -->
<g id="edge2" class="edge">
<title>Crouching Light Kick&#45;&gt;Crouching Light Punch</title>
<path fill="none" stroke="black" d="M214.47,-431.7C215.11,-424.24 215.87,-415.32 216.59,-406.97"/>
<polygon fill="black" stroke="black" points="220.15,-407.37 217.52,-397.1 213.18,-406.77 220.15,-407.37"/>
</g>
<!-- Somersault Kick -->
<g id="node5" class="node">
<title>Somersault Kick</title>
<ellipse fill="none" stroke="black" cx="141.99" cy="-234" rx="72.02" ry="18"/>
<text text-anchor="middle" x="141.99" y="-228.57" font-family="Times New Roman,serif" font-size="14.00">Somersault Kick</text>
</g>
<!-- Crouching Light Punch&#45;&gt;Somersault Kick -->
<g id="edge3" class="edge">
<title>Crouching Light Punch&#45;&gt;Somersault Kick</title>
<path fill="none" stroke="black" d="M199.56,-359.98C189.52,-350.3 177.78,-337.44 169.99,-324 158.95,-304.97 151.74,-281.08 147.41,-262.85"/>
<polygon fill="black" stroke="black" points="150.66,-262.32 145.07,-253.32 143.82,-263.84 150.66,-262.32"/>
</g>
<!-- Standing Light Kick -->
<g id="node34" class="node">
<title>Standing Light Kick</title>
<ellipse fill="none" stroke="black" cx="262.99" cy="-306" rx="84.5" ry="18"/>
<text text-anchor="middle" x="262.99" y="-300.57" font-family="Times New Roman,serif" font-size="14.00">Standing Light Kick</text>
</g>
<!-- Crouching Light Punch&#45;&gt;Standing Light Kick -->
<g id="edge48" class="edge">
<title>Crouching Light Punch&#45;&gt;Standing Light Kick</title>
<path fill="none" stroke="black" d="M229.86,-359.7C234.87,-351.73 240.92,-342.1 246.48,-333.26"/>
<polygon fill="black" stroke="black" points="249.88,-335.43 252.24,-325.1 243.95,-331.71 249.88,-335.43"/>
</g>
<!-- Crossfire Somersault -->
<g id="node30" class="node">
<title>Crossfire Somersault</title>
<ellipse fill="none" stroke="black" cx="88.99" cy="-162" rx="88.99" ry="18"/>
<text text-anchor="middle" x="88.99" y="-156.57" font-family="Times New Roman,serif" font-size="14.00">Crossfire Somersault</text>
</g>
<!-- Somersault Kick&#45;&gt;Crossfire Somersault -->
<g id="edge38" class="edge">
<title>Somersault Kick&#45;&gt;Crossfire Somersault</title>
<path fill="none" stroke="black" d="M129.16,-216.05C123,-207.92 115.49,-198 108.63,-188.94"/>
<polygon fill="black" stroke="black" points="110.89,-187.14 102.07,-181.28 105.31,-191.36 110.89,-187.14"/>
</g>
<!-- Burning Straight -->
<g id="node6" class="node">
<title>Burning Straight</title>
<ellipse fill="none" stroke="black" cx="883.99" cy="-522" rx="70.52" ry="18"/>
<text text-anchor="middle" x="883.99" y="-516.58" font-family="Times New Roman,serif" font-size="14.00">Burning Straight</text>
</g>
<!-- Sonic Boom -->
<g id="node7" class="node">
<title>Sonic Boom</title>
<ellipse fill="none" stroke="black" cx="883.99" cy="-594" rx="57.55" ry="18"/>
<text text-anchor="middle" x="883.99" y="-588.58" font-family="Times New Roman,serif" font-size="14.00">Sonic Boom</text>
</g>
<!-- Burning Straight&#45;&gt;Sonic Boom -->
<g id="edge4" class="edge">
<title>Burning Straight&#45;&gt;Sonic Boom</title>
<path fill="none" stroke="black" d="M889.88,-540.1C890.66,-547.54 890.91,-556.44 890.62,-564.81"/>
<polygon fill="black" stroke="black" points="887.07,-564.49 889.9,-574.7 894.06,-564.95 887.07,-564.49"/>
</g>
<!-- OD Sonic Boom -->
<g id="node14" class="node">
<title>OD Sonic Boom</title>
<ellipse fill="none" stroke="black" cx="867.99" cy="-234" rx="73.52" ry="18"/>
<text text-anchor="middle" x="867.99" y="-228.57" font-family="Times New Roman,serif" font-size="14.00">OD Sonic Boom</text>
</g>
<!-- Burning Straight&#45;&gt;OD Sonic Boom -->
<g id="edge32" class="edge">
<title>Burning Straight&#45;&gt;OD Sonic Boom</title>
<path fill="none" stroke="black" d="M871.68,-503.78C865.34,-493.84 858.26,-480.8 854.99,-468 836.52,-395.78 851.31,-307.02 861.1,-262.8"/>
<polygon fill="black" stroke="black" points="864.68,-263.83 863.51,-253.3 857.86,-262.26 864.68,-263.83"/>
</g>
<!-- Sonic Hurricane -->
<g id="node19" class="node">
<title>Sonic Hurricane</title>
<ellipse fill="none" stroke="black" cx="625.99" cy="-90" rx="70.52" ry="18"/>
<text text-anchor="middle" x="625.99" y="-84.58" font-family="Times New Roman,serif" font-size="14.00">Sonic Hurricane</text>
</g>
<!-- Burning Straight&#45;&gt;Sonic Hurricane -->
<g id="edge23" class="edge">
<title>Burning Straight&#45;&gt;Sonic Hurricane</title>
<path fill="none" stroke="black" d="M881.65,-503.66C878.21,-473.69 873.64,-410.57 887.99,-360 903.16,-306.54 936.48,-305.64 950.99,-252 963.51,-205.66 982.08,-180.57 950.99,-144 920.27,-107.87 792.87,-96.31 707,-92.65"/>
<polygon fill="black" stroke="black" points="707.35,-89.12 697.22,-92.22 707.08,-96.11 707.35,-89.12"/>
</g>
<!-- Cancel Drive Rush -->
<g id="node22" class="node">
<title>Cancel Drive Rush</title>
<ellipse fill="none" stroke="black" cx="1570.99" cy="-450" rx="80.5" ry="18"/>
<text text-anchor="middle" x="1570.99" y="-444.57" font-family="Times New Roman,serif" font-size="14.00">Cancel Drive Rush</text>
</g>
<!-- Burning Straight&#45;&gt;Cancel Drive Rush -->
<g id="edge16" class="edge">
<title>Burning Straight&#45;&gt;Cancel Drive Rush</title>
<path fill="none" stroke="black" d="M948.62,-514.41C1073.95,-501.64 1349.85,-473.53 1488.31,-459.42"/>
<polygon fill="black" stroke="black" points="1488.25,-462.85 1497.84,-458.35 1487.54,-455.88 1488.25,-462.85"/>
</g>
<!-- Light Sonic Boom -->
<g id="node32" class="node">
<title>Light Sonic Boom</title>
<ellipse fill="none" stroke="black" cx="723.99" cy="-450" rx="79.01" ry="18"/>
<text text-anchor="middle" x="723.99" y="-444.57" font-family="Times New Roman,serif" font-size="14.00">Light Sonic Boom</text>
</g>
<!-- Burning Straight&#45;&gt;Light Sonic Boom -->
<g id="edge43" class="edge">
<title>Burning Straight&#45;&gt;Light Sonic Boom</title>
<path fill="none" stroke="black" d="M849.66,-505.98C826.16,-495.7 794.73,-481.95 769.19,-470.78"/>
<polygon fill="black" stroke="black" points="770.93,-467.28 760.36,-466.48 768.12,-473.69 770.93,-467.28"/>
</g>
<!-- Sonic Boom&#45;&gt;Burning Straight -->
<g id="edge42" class="edge">
<title>Sonic Boom&#45;&gt;Burning Straight</title>
<path fill="none" stroke="black" d="M878.07,-575.7C877.3,-568.24 877.07,-559.32 877.36,-550.97"/>
<polygon fill="black" stroke="black" points="880.91,-551.32 878.09,-541.1 873.93,-550.85 880.91,-551.32"/>
</g>
<!-- Drive Impact (Punish Counter) -->
<g id="node8" class="node">
<title>Drive Impact (Punish Counter)</title>
<ellipse fill="none" stroke="black" cx="496.99" cy="-378" rx="124.92" ry="18"/>
<text text-anchor="middle" x="496.99" y="-372.57" font-family="Times New Roman,serif" font-size="14.00">Drive Impact (Punish Counter)</text>
</g>
<!-- Drive Impact (Punish Counter)&#45;&gt;Double Shot -->
<g id="edge5" class="edge">
<title>Drive Impact (Punish Counter)&#45;&gt;Double Shot</title>
<path fill="none" stroke="black" d="M587.14,-365.2C695.42,-351.04 874.26,-327.64 968.83,-315.26"/>
<polygon fill="black" stroke="black" points="969.19,-318.61 978.66,-313.85 968.29,-311.67 969.19,-318.61"/>
</g>
<!-- Phantom Cutter -->
<g id="node11" class="node">
<title>Phantom Cutter</title>
<ellipse fill="none" stroke="black" cx="438.99" cy="-306" rx="69.03" ry="18"/>
<text text-anchor="middle" x="438.99" y="-300.57" font-family="Times New Roman,serif" font-size="14.00">Phantom Cutter</text>
</g>
<!-- Drive Impact (Punish Counter)&#45;&gt;Phantom Cutter -->
<g id="edge25" class="edge">
<title>Drive Impact (Punish Counter)&#45;&gt;Phantom Cutter</title>
<path fill="none" stroke="black" d="M482.65,-359.7C475.84,-351.47 467.56,-341.48 460.05,-332.42"/>
<polygon fill="black" stroke="black" points="462.24,-330.57 453.16,-325.1 456.84,-335.04 462.24,-330.57"/>
</g>
<!-- Double Shot&#45;&gt;Somersault Kick -->
<g id="edge6" class="edge">
<title>Double Shot&#45;&gt;Somersault Kick</title>
<path fill="none" stroke="black" d="M974.4,-303.97C841.56,-300.98 503.63,-289.97 223.99,-252 217.56,-251.13 210.88,-250.04 204.23,-248.84"/>
<polygon fill="black" stroke="black" points="205.33,-245.3 194.85,-246.89 204.03,-252.18 205.33,-245.3"/>
</g>
<!-- Double Shot&#45;&gt;OD Sonic Boom -->
<g id="edge20" class="edge">
<title>Double Shot&#45;&gt;OD Sonic Boom</title>
<path fill="none" stroke="black" d="M998.8,-290.83C974.23,-280.35 940.48,-265.94 913.41,-254.39"/>
<polygon fill="black" stroke="black" points="914.97,-250.82 904.4,-250.11 912.22,-257.26 914.97,-250.82"/>
</g>
<!-- Drive Impact (Block) -->
<g id="node10" class="node">
<title>Drive Impact (Block)</title>
<ellipse fill="none" stroke="black" cx="674.99" cy="-594" rx="89.49" ry="18"/>
<text text-anchor="middle" x="674.99" y="-588.58" font-family="Times New Roman,serif" font-size="14.00">Drive Impact (Block)</text>
</g>
<!-- Drive Impact (Block)&#45;&gt;Burning Straight -->
<g id="edge22" class="edge">
<title>Drive Impact (Block)&#45;&gt;Burning Straight</title>
<path fill="none" stroke="black" d="M719.82,-577.98C752.76,-566.95 797.59,-551.94 832.08,-540.39"/>
<polygon fill="black" stroke="black" points="833.05,-543.42 841.42,-536.92 830.83,-536.78 833.05,-543.42"/>
</g>
<!-- Drive Impact (Block)&#45;&gt;Phantom Cutter -->
<g id="edge7" class="edge">
<title>Drive Impact (Block)&#45;&gt;Phantom Cutter</title>
<path fill="none" stroke="black" d="M645.48,-576.54C570.77,-534.58 378.89,-424.86 362.99,-396 355.26,-381.99 355.59,-374.19 362.99,-360 370.05,-346.46 382.33,-335.67 394.99,-327.46"/>
<polygon fill="black" stroke="black" points="396.43,-330.08 403.2,-321.93 392.82,-324.07 396.43,-330.08"/>
</g>
<!-- Phantom Cutter&#45;&gt;Somersault Kick -->
<g id="edge8" class="edge">
<title>Phantom Cutter&#45;&gt;Somersault Kick</title>
<path fill="none" stroke="black" d="M388.94,-293.2C337.95,-281.19 258.77,-262.53 203.88,-249.59"/>
<polygon fill="black" stroke="black" points="204.77,-245.97 194.24,-247.08 203.17,-252.78 204.77,-245.97"/>
</g>
<!-- Heavy Somersault Kick -->
<g id="node21" class="node">
<title>Heavy Somersault Kick</title>
<ellipse fill="none" stroke="black" cx="341.99" cy="-162" rx="97.97" ry="18"/>
<text text-anchor="middle" x="341.99" y="-156.57" font-family="Times New Roman,serif" font-size="14.00">Heavy Somersault Kick</text>
</g>
<!-- Phantom Cutter&#45;&gt;Heavy Somersault Kick -->
<g id="edge26" class="edge">
<title>Phantom Cutter&#45;&gt;Heavy Somersault Kick</title>
<path fill="none" stroke="black" d="M439.53,-287.79C439.31,-268.71 436.46,-237.74 421.99,-216 413.45,-203.17 400.63,-192.68 387.74,-184.53"/>
<polygon fill="black" stroke="black" points="389.79,-181.09 379.4,-179.01 386.22,-187.11 389.79,-181.09"/>
</g>
<!-- Standing Medium Punch&#45;&gt;Double Shot -->
<g id="edge19" class="edge">
<title>Standing Medium Punch&#45;&gt;Double Shot</title>
<path fill="none" stroke="black" d="M1122.67,-723.96C1223.72,-702.25 1403.99,-655.11 1403.99,-595 1403.99,-595 1403.99,-595 1403.99,-449 1403.99,-408.55 1414.45,-387.71 1384.99,-360 1344.97,-322.36 1191.07,-311.44 1100.22,-308.28"/>
<polygon fill="black" stroke="black" points="1100.58,-304.75 1090.47,-307.93 1100.35,-311.75 1100.58,-304.75"/>
</g>
<!-- Crouching Medium Punch -->
<g id="node13" class="node">
<title>Crouching Medium Punch</title>
<ellipse fill="none" stroke="black" cx="791.99" cy="-666" rx="108.45" ry="18"/>
<text text-anchor="middle" x="791.99" y="-660.58" font-family="Times New Roman,serif" font-size="14.00">Crouching Medium Punch</text>
</g>
<!-- Standing Medium Punch&#45;&gt;Crouching Medium Punch -->
<g id="edge10" class="edge">
<title>Standing Medium Punch&#45;&gt;Crouching Medium Punch</title>
<path fill="none" stroke="black" d="M1000.97,-722.41C959.5,-711.42 902.47,-696.29 858.45,-684.62"/>
<polygon fill="black" stroke="black" points="859.41,-680.99 848.85,-681.81 857.62,-687.76 859.41,-680.99"/>
</g>
<!-- Sonic Boom (Perfect) -->
<g id="node33" class="node">
<title>Sonic Boom (Perfect)</title>
<ellipse fill="none" stroke="black" cx="404.99" cy="-666" rx="92.48" ry="18"/>
<text text-anchor="middle" x="404.99" y="-660.58" font-family="Times New Roman,serif" font-size="14.00">Sonic Boom (Perfect)</text>
</g>
<!-- Standing Medium Punch&#45;&gt;Sonic Boom (Perfect) -->
<g id="edge46" class="edge">
<title>Standing Medium Punch&#45;&gt;Sonic Boom (Perfect)</title>
<path fill="none" stroke="black" d="M970.84,-727.76C947.54,-725.24 922.29,-722.51 898.99,-720 758.05,-704.81 594.49,-687.28 495.42,-676.68"/>
<polygon fill="black" stroke="black" points="495.88,-673.1 485.56,-675.51 495.13,-680.06 495.88,-673.1"/>
</g>
<!-- Crouching Medium Punch&#45;&gt;Somersault Kick -->
<g id="edge37" class="edge">
<title>Crouching Medium Punch&#45;&gt;Somersault Kick</title>
<path fill="none" stroke="black" d="M701.33,-655.78C658.44,-648.47 607.82,-635.39 566.99,-612 509.43,-579.03 523.55,-533.19 463.99,-504 393.58,-469.5 165.53,-526.2 112.99,-468 61.08,-410.49 102.23,-309.95 126.87,-261.97"/>
<polygon fill="black" stroke="black" points="130.41,-263.77 131.99,-253.29 124.22,-260.5 130.41,-263.77"/>
</g>
<!-- Crouching Medium Punch&#45;&gt;Sonic Boom -->
<g id="edge41" class="edge">
<title>Crouching Medium Punch&#45;&gt;Sonic Boom</title>
<path fill="none" stroke="black" d="M814.26,-648.05C826.27,-638.92 841.25,-627.51 854.25,-617.63"/>
<polygon fill="black" stroke="black" points="856.03,-619.91 861.87,-611.07 851.79,-614.34 856.03,-619.91"/>
</g>
<!-- Crouching Medium Punch&#45;&gt;OD Sonic Boom -->
<g id="edge11" class="edge">
<title>Crouching Medium Punch&#45;&gt;OD Sonic Boom</title>
<path fill="none" stroke="black" d="M706.05,-654.68C653.44,-646.4 593.2,-632.69 576.99,-612 567.12,-599.4 573.9,-591.7 576.99,-576 590.35,-508.14 595.36,-487.97 635.99,-432 691.53,-355.47 782.8,-289.66 832.7,-256.99"/>
<polygon fill="black" stroke="black" points="834.32,-259.46 840.81,-251.09 830.51,-253.59 834.32,-259.46"/>
</g>
<!-- Crouching Medium Punch&#45;&gt;Light Sonic Boom -->
<g id="edge52" class="edge">
<title>Crouching Medium Punch&#45;&gt;Light Sonic Boom</title>
<path fill="none" stroke="black" d="M789.16,-647.73C786.01,-629.64 780.35,-600.51 772.99,-576 762.6,-541.43 746.84,-502.94 736.02,-477.92"/>
<polygon fill="black" stroke="black" points="738.93,-476.84 731.71,-469.08 732.52,-479.64 738.93,-476.84"/>
</g>
<!-- Light Sonic Boom (Perfect) -->
<g id="node37" class="node">
<title>Light Sonic Boom (Perfect)</title>
<ellipse fill="none" stroke="black" cx="377.99" cy="-594" rx="113.94" ry="18"/>
<text text-anchor="middle" x="377.99" y="-588.58" font-family="Times New Roman,serif" font-size="14.00">Light Sonic Boom (Perfect)</text>
</g>
<!-- Crouching Medium Punch&#45;&gt;Light Sonic Boom (Perfect) -->
<g id="edge56" class="edge">
<title>Crouching Medium Punch&#45;&gt;Light Sonic Boom (Perfect)</title>
<path fill="none" stroke="black" d="M717.97,-652.49C646.92,-640.47 539.63,-622.33 464.63,-609.65"/>
<polygon fill="black" stroke="black" points="465.25,-606.04 454.81,-607.82 464.09,-612.94 465.25,-606.04"/>
</g>
<!-- OD Sonic Boom&#45;&gt;Heavy Somersault Kick -->
<g id="edge21" class="edge">
<title>OD Sonic Boom&#45;&gt;Heavy Somersault Kick</title>
<path fill="none" stroke="black" d="M814.75,-221.17C805.21,-219.28 795.32,-217.46 785.99,-216 637.17,-192.68 598.31,-199.82 448.99,-180 440.79,-178.91 432.26,-177.7 423.74,-176.43"/>
<polygon fill="black" stroke="black" points="424.41,-172.84 413.99,-174.8 423.36,-179.76 424.41,-172.84"/>
</g>
<!-- Sonic Break -->
<g id="node28" class="node">
<title>Sonic Break</title>
<ellipse fill="none" stroke="black" cx="867.99" cy="-162" rx="56.05" ry="18"/>
<text text-anchor="middle" x="867.99" y="-156.57" font-family="Times New Roman,serif" font-size="14.00">Sonic Break</text>
</g>
<!-- OD Sonic Boom&#45;&gt;Sonic Break -->
<g id="edge33" class="edge">
<title>OD Sonic Boom&#45;&gt;Sonic Break</title>
<path fill="none" stroke="black" d="M867.99,-215.7C867.99,-208.24 867.99,-199.32 867.99,-190.97"/>
<polygon fill="black" stroke="black" points="871.49,-191.1 867.99,-181.1 864.49,-191.1 871.49,-191.1"/>
</g>
<!-- Crouching Light Punch (Counter) -->
<g id="node15" class="node">
<title>Crouching Light Punch (Counter)</title>
<ellipse fill="none" stroke="black" cx="1031.99" cy="-378" rx="135.39" ry="18"/>
<text text-anchor="middle" x="1031.99" y="-372.57" font-family="Times New Roman,serif" font-size="14.00">Crouching Light Punch (Counter)</text>
</g>
<!-- Crouching Light Punch (Counter)&#45;&gt;Double Shot -->
<g id="edge12" class="edge">
<title>Crouching Light Punch (Counter)&#45;&gt;Double Shot</title>
<path fill="none" stroke="black" d="M1031.99,-359.7C1031.99,-352.24 1031.99,-343.32 1031.99,-334.97"/>
<polygon fill="black" stroke="black" points="1035.49,-335.1 1031.99,-325.1 1028.49,-335.1 1035.49,-335.1"/>
</g>
<!-- Crouching Medium Kick (Counter) -->
<g id="node16" class="node">
<title>Crouching Medium Kick (Counter)</title>
<ellipse fill="none" stroke="black" cx="396.99" cy="-90" rx="140.88" ry="18"/>
<text text-anchor="middle" x="396.99" y="-84.58" font-family="Times New Roman,serif" font-size="14.00">Crouching Medium Kick (Counter)</text>
</g>
<!-- OD Somersault Kick -->
<g id="node17" class="node">
<title>OD Somersault Kick</title>
<ellipse fill="none" stroke="black" cx="510.99" cy="-18" rx="87.99" ry="18"/>
<text text-anchor="middle" x="510.99" y="-12.57" font-family="Times New Roman,serif" font-size="14.00">OD Somersault Kick</text>
</g>
<!-- Crouching Medium Kick (Counter)&#45;&gt;OD Somersault Kick -->
<g id="edge13" class="edge">
<title>Crouching Medium Kick (Counter)&#45;&gt;OD Somersault Kick</title>
<path fill="none" stroke="black" d="M424.88,-71.88C439.97,-62.61 458.8,-51.05 474.99,-41.1"/>
<polygon fill="black" stroke="black" points="476.48,-43.68 483.17,-35.47 472.82,-37.72 476.48,-43.68"/>
</g>
<!-- Crouching Medium Kick (Punish Counter) -->
<g id="node18" class="node">
<title>Crouching Medium Kick (Punish Counter)</title>
<ellipse fill="none" stroke="black" cx="625.99" cy="-162" rx="168.33" ry="18"/>
<text text-anchor="middle" x="625.99" y="-156.57" font-family="Times New Roman,serif" font-size="14.00">Crouching Medium Kick (Punish Counter)</text>
</g>
<!-- Crouching Medium Kick (Punish Counter)&#45;&gt;Sonic Hurricane -->
<g id="edge14" class="edge">
<title>Crouching Medium Kick (Punish Counter)&#45;&gt;Sonic Hurricane</title>
<path fill="none" stroke="black" d="M625.99,-143.7C625.99,-136.24 625.99,-127.32 625.99,-118.97"/>
<polygon fill="black" stroke="black" points="629.49,-119.1 625.99,-109.1 622.49,-119.1 629.49,-119.1"/>
</g>
<!-- Sonic Hurricane&#45;&gt;OD Somersault Kick -->
<g id="edge24" class="edge">
<title>Sonic Hurricane&#45;&gt;OD Somersault Kick</title>
<path fill="none" stroke="black" d="M599.6,-72.94C584.05,-63.47 564.15,-51.36 547.15,-41.01"/>
<polygon fill="black" stroke="black" points="549.41,-37.68 539.05,-35.47 545.77,-43.66 549.41,-37.68"/>
</g>
<!-- Phantom Cutter (Punish Counter) -->
<g id="node20" class="node">
<title>Phantom Cutter (Punish Counter)</title>
<ellipse fill="none" stroke="black" cx="641.99" cy="-234" rx="134.9" ry="18"/>
<text text-anchor="middle" x="641.99" y="-228.57" font-family="Times New Roman,serif" font-size="14.00">Phantom Cutter (Punish Counter)</text>
</g>
<!-- Phantom Cutter (Punish Counter)&#45;&gt;Heavy Somersault Kick -->
<g id="edge15" class="edge">
<title>Phantom Cutter (Punish Counter)&#45;&gt;Heavy Somersault Kick</title>
<path fill="none" stroke="black" d="M576.89,-217.81C528.17,-206.44 461.62,-190.91 411.79,-179.29"/>
<polygon fill="black" stroke="black" points="412.64,-175.66 402.11,-176.79 411.05,-182.47 412.64,-175.66"/>
</g>
<!-- Heavy Somersault Kick&#45;&gt;Sonic Hurricane -->
<g id="edge27" class="edge">
<title>Heavy Somersault Kick&#45;&gt;Sonic Hurricane</title>
<path fill="none" stroke="black" d="M398.78,-147C447.19,-135.07 516.56,-117.97 565.89,-105.81"/>
<polygon fill="black" stroke="black" points="566.54,-109.01 575.41,-103.22 564.87,-102.21 566.54,-109.01"/>
</g>
<!-- Rolling Sobat -->
<g id="node23" class="node">
<title>Rolling Sobat</title>
<ellipse fill="none" stroke="black" cx="1493.99" cy="-378" rx="61.54" ry="18"/>
<text text-anchor="middle" x="1493.99" y="-372.57" font-family="Times New Roman,serif" font-size="14.00">Rolling Sobat</text>
</g>
<!-- Cancel Drive Rush&#45;&gt;Rolling Sobat -->
<g id="edge17" class="edge">
<title>Cancel Drive Rush&#45;&gt;Rolling Sobat</title>
<path fill="none" stroke="black" d="M1552.35,-432.05C1542.73,-423.31 1530.82,-412.49 1520.28,-402.9"/>
<polygon fill="black" stroke="black" points="1522.94,-400.68 1513.19,-396.55 1518.23,-405.86 1522.94,-400.68"/>
</g>
<!-- (After drive rush) Rolling Sobat -->
<g id="node31" class="node">
<title>(After drive rush) Rolling Sobat</title>
<ellipse fill="none" stroke="black" cx="1701.99" cy="-378" rx="128.41" ry="18"/>
<text text-anchor="middle" x="1701.99" y="-372.57" font-family="Times New Roman,serif" font-size="14.00">(After drive rush) Rolling Sobat</text>
</g>
<!-- Cancel Drive Rush&#45;&gt;(After drive rush) Rolling Sobat -->
<g id="edge39" class="edge">
<title>Cancel Drive Rush&#45;&gt;(After drive rush) Rolling Sobat</title>
<path fill="none" stroke="black" d="M1601.04,-432.94C1618.88,-423.41 1641.73,-411.2 1661.18,-400.81"/>
<polygon fill="black" stroke="black" points="1662.54,-403.52 1669.71,-395.72 1659.24,-397.34 1662.54,-403.52"/>
</g>
<!-- Rolling Sobat&#45;&gt;Double Shot -->
<g id="edge18" class="edge">
<title>Rolling Sobat&#45;&gt;Double Shot</title>
<path fill="none" stroke="black" d="M1447.49,-365.95C1437.77,-363.83 1427.57,-361.73 1417.99,-360 1305.29,-339.7 1172.85,-323.07 1096.06,-314.13"/>
<polygon fill="black" stroke="black" points="1096.93,-310.6 1086.6,-312.93 1096.13,-317.55 1096.93,-310.6"/>
</g>
<!-- Rolling Sobat&#45;&gt;Standing Medium Punch -->
<g id="edge51" class="edge">
<title>Rolling Sobat&#45;&gt;Standing Medium Punch</title>
<path fill="none" stroke="black" d="M1483.21,-396.19C1467.98,-422.17 1441.99,-473.48 1441.99,-521 1441.99,-595 1441.99,-595 1441.99,-595 1441.99,-635.97 1448.65,-656.83 1417.99,-684 1375.81,-721.36 1222.73,-711.73 1166.99,-720 1158.78,-721.22 1150.24,-722.5 1141.7,-723.79"/>
<polygon fill="black" stroke="black" points="1141.27,-720.47 1131.91,-725.43 1142.32,-727.39 1141.27,-720.47"/>
</g>
<!-- Parry Drive Rush -->
<g id="node24" class="node">
<title>Parry Drive Rush</title>
<ellipse fill="none" stroke="black" cx="1042.99" cy="-810" rx="75.02" ry="18"/>
<text text-anchor="middle" x="1042.99" y="-804.58" font-family="Times New Roman,serif" font-size="14.00">Parry Drive Rush</text>
</g>
<!-- Crouching Medium Kick -->
<g id="node25" class="node">
<title>Crouching Medium Kick</title>
<ellipse fill="none" stroke="black" cx="1277.99" cy="-738" rx="102.46" ry="18"/>
<text text-anchor="middle" x="1277.99" y="-732.58" font-family="Times New Roman,serif" font-size="14.00">Crouching Medium Kick</text>
</g>
<!-- Parry Drive Rush&#45;&gt;Crouching Medium Kick -->
<g id="edge28" class="edge">
<title>Parry Drive Rush&#45;&gt;Crouching Medium Kick</title>
<path fill="none" stroke="black" d="M1088.86,-795.34C1125.4,-784.45 1176.88,-769.12 1216.91,-757.19"/>
<polygon fill="black" stroke="black" points="1217.76,-760.29 1226.35,-754.08 1215.76,-753.59 1217.76,-760.29"/>
</g>
<!-- Full Bullet Magnum -->
<g id="node29" class="node">
<title>Full Bullet Magnum</title>
<ellipse fill="none" stroke="black" cx="806.99" cy="-738" rx="83" ry="18"/>
<text text-anchor="middle" x="806.99" y="-732.58" font-family="Times New Roman,serif" font-size="14.00">Full Bullet Magnum</text>
</g>
<!-- Parry Drive Rush&#45;&gt;Full Bullet Magnum -->
<g id="edge35" class="edge">
<title>Parry Drive Rush&#45;&gt;Full Bullet Magnum</title>
<path fill="none" stroke="black" d="M997.2,-795.42C959.47,-784.23 905.73,-768.29 864.99,-756.2"/>
<polygon fill="black" stroke="black" points="866.25,-752.63 855.67,-753.14 864.26,-759.34 866.25,-752.63"/>
</g>
<!-- Standing Heavy Punch -->
<g id="node26" class="node">
<title>Standing Heavy Punch</title>
<ellipse fill="none" stroke="black" cx="1638.99" cy="-666" rx="94.98" ry="18"/>
<text text-anchor="middle" x="1638.99" y="-660.58" font-family="Times New Roman,serif" font-size="14.00">Standing Heavy Punch</text>
</g>
<!-- Crouching Medium Kick&#45;&gt;Standing Heavy Punch -->
<g id="edge29" class="edge">
<title>Crouching Medium Kick&#45;&gt;Standing Heavy Punch</title>
<path fill="none" stroke="black" d="M1345.04,-724C1407.14,-711.96 1499.36,-694.07 1563.9,-681.56"/>
<polygon fill="black" stroke="black" points="1564.27,-684.86 1573.42,-679.52 1562.93,-677.99 1564.27,-684.86"/>
</g>
<!-- Standing Heavy Punch&#45;&gt;Cancel Drive Rush -->
<g id="edge55" class="edge">
<title>Standing Heavy Punch&#45;&gt;Cancel Drive Rush</title>
<path fill="none" stroke="black" d="M1633.54,-647.85C1621.8,-610.91 1594.04,-523.55 1579.78,-478.67"/>
<polygon fill="black" stroke="black" points="1582.83,-477.7 1576.46,-469.23 1576.16,-479.82 1582.83,-477.7"/>
</g>
<!-- Solid Puncher -->
<g id="node27" class="node">
<title>Solid Puncher</title>
<ellipse fill="none" stroke="black" cx="1532.99" cy="-594" rx="63.04" ry="18"/>
<text text-anchor="middle" x="1532.99" y="-588.58" font-family="Times New Roman,serif" font-size="14.00">Solid Puncher</text>
</g>
<!-- Standing Heavy Punch&#45;&gt;Solid Puncher -->
<g id="edge30" class="edge">
<title>Standing Heavy Punch&#45;&gt;Solid Puncher</title>
<path fill="none" stroke="black" d="M1613.6,-648.23C1599.4,-638.85 1581.52,-627.05 1566.22,-616.95"/>
<polygon fill="black" stroke="black" points="1568.35,-613.5 1558.08,-610.91 1564.49,-619.34 1568.35,-613.5"/>
</g>
<!-- Solid Puncher&#45;&gt;Burning Straight -->
<g id="edge31" class="edge">
<title>Solid Puncher&#45;&gt;Burning Straight</title>
<path fill="none" stroke="black" d="M1474.82,-586.73C1356.8,-574 1089.34,-545.15 958.66,-531.05"/>
<polygon fill="black" stroke="black" points="959.29,-527.49 948.97,-529.9 958.54,-534.45 959.29,-527.49"/>
</g>
<!-- Sonic Break&#45;&gt;Sonic Break -->
<g id="edge34" class="edge">
<title>Sonic Break&#45;&gt;Sonic Break</title>
<path fill="none" stroke="black" d="M907.23,-175.2C925.76,-176.74 942.04,-172.34 942.04,-162 942.04,-153.76 931.7,-149.3 918.13,-148.6"/>
<polygon fill="black" stroke="black" points="918.16,-145.11 908.23,-148.8 918.29,-152.11 918.16,-145.11"/>
</g>
<!-- Full Bullet Magnum&#45;&gt;Crouching Medium Punch -->
<g id="edge36" class="edge">
<title>Full Bullet Magnum&#45;&gt;Crouching Medium Punch</title>
<path fill="none" stroke="black" d="M803.28,-719.7C801.66,-712.15 799.73,-703.12 797.92,-694.68"/>
<polygon fill="black" stroke="black" points="801.17,-694.15 795.65,-685.1 794.33,-695.62 801.17,-694.15"/>
</g>
<!-- (After drive rush) Rolling Sobat&#45;&gt;Standing Medium Punch -->
<g id="edge40" class="edge">
<title>(After drive rush) Rolling Sobat&#45;&gt;Standing Medium Punch</title>
<path fill="none" stroke="black" d="M1699.28,-396.33C1691.83,-438.6 1667.29,-548.21 1604.99,-612 1591.23,-626.09 1461.95,-678.67 1442.99,-684 1323.9,-717.47 1289.47,-702.64 1166.99,-720 1158.62,-721.19 1149.9,-722.46 1141.19,-723.75"/>
<polygon fill="black" stroke="black" points="1140.96,-720.4 1131.59,-725.34 1142,-727.32 1140.96,-720.4"/>
</g>
<!-- Light Sonic Boom&#45;&gt;Crouching Heavy Kick -->
<g id="edge44" class="edge">
<title>Light Sonic Boom&#45;&gt;Crouching Heavy Kick</title>
<path fill="none" stroke="black" d="M794.57,-441.69C883.62,-432.25 1041.39,-414.78 1175.99,-396 1184.09,-394.87 1192.53,-393.62 1200.95,-392.33"/>
<polygon fill="black" stroke="black" points="1201.24,-395.67 1210.58,-390.68 1200.16,-388.76 1201.24,-395.67"/>
</g>
<!-- Light Sonic Boom&#45;&gt;Heavy Somersault Kick -->
<g id="edge53" class="edge">
<title>Light Sonic Boom&#45;&gt;Heavy Somersault Kick</title>
<path fill="none" stroke="black" d="M707.38,-432.01C689.18,-413.64 658.85,-383.81 630.99,-360 550.71,-291.38 530.94,-272.92 441.99,-216 424.11,-204.56 403.52,-193.34 385.69,-184.19"/>
<polygon fill="black" stroke="black" points="387.6,-180.73 377.1,-179.33 384.44,-186.98 387.6,-180.73"/>
</g>
<!-- Sonic Boom (Perfect)&#45;&gt;Crouching Light Punch -->
<g id="edge47" class="edge">
<title>Sonic Boom (Perfect)&#45;&gt;Crouching Light Punch</title>
<path fill="none" stroke="black" d="M327.08,-656.04C299.71,-648.72 271.65,-635.56 254.99,-612 241.34,-592.71 260.43,-516.68 267.99,-504 281.1,-482 301.89,-491.08 312.99,-468 319.92,-453.58 321.06,-445.82 312.99,-432 304.54,-417.54 290.52,-406.71 275.86,-398.75"/>
<polygon fill="black" stroke="black" points="277.7,-395.25 267.19,-393.92 274.57,-401.51 277.7,-395.25"/>
</g>
<!-- Medium Sonic Boom -->
<g id="node35" class="node">
<title>Medium Sonic Boom</title>
<ellipse fill="none" stroke="black" cx="322.99" cy="-234" rx="90.48" ry="18"/>
<text text-anchor="middle" x="322.99" y="-228.57" font-family="Times New Roman,serif" font-size="14.00">Medium Sonic Boom</text>
</g>
<!-- Standing Light Kick&#45;&gt;Medium Sonic Boom -->
<g id="edge49" class="edge">
<title>Standing Light Kick&#45;&gt;Medium Sonic Boom</title>
<path fill="none" stroke="black" d="M277.51,-288.05C284.73,-279.63 293.6,-269.28 301.59,-259.97"/>
<polygon fill="black" stroke="black" points="304.75,-262.66 308.6,-252.79 299.43,-258.1 304.75,-262.66"/>
</g>
<!-- Medium Sonic Boom&#45;&gt;Heavy Somersault Kick -->
<g id="edge50" class="edge">
<title>Medium Sonic Boom&#45;&gt;Heavy Somersault Kick</title>
<path fill="none" stroke="black" d="M327.68,-215.7C329.73,-208.15 332.18,-199.12 334.47,-190.68"/>
<polygon fill="black" stroke="black" points="338.1,-191.67 337.34,-181.1 331.35,-189.84 338.1,-191.67"/>
</g>
<!-- Standing Medium Punch (Punish Counter) -->
<g id="node36" class="node">
<title>Standing Medium Punch (Punish Counter)</title>
<ellipse fill="none" stroke="black" cx="1565.99" cy="-738" rx="167.83" ry="18"/>
<text text-anchor="middle" x="1565.99" y="-732.58" font-family="Times New Roman,serif" font-size="14.00">Standing Medium Punch (Punish Counter)</text>
</g>
<!-- Standing Medium Punch (Punish Counter)&#45;&gt;Standing Heavy Punch -->
<g id="edge54" class="edge">
<title>Standing Medium Punch (Punish Counter)&#45;&gt;Standing Heavy Punch</title>
<path fill="none" stroke="black" d="M1584.03,-719.7C1592.87,-711.22 1603.67,-700.86 1613.35,-691.58"/>
<polygon fill="black" stroke="black" points="1615.35,-694.55 1620.15,-685.1 1610.51,-689.5 1615.35,-694.55"/>
</g>
<!-- Standing Heavy Kick -->
<g id="node38" class="node">
<title>Standing Heavy Kick</title>
<ellipse fill="none" stroke="black" cx="365.99" cy="-522" rx="88.99" ry="18"/>
<text text-anchor="middle" x="365.99" y="-516.58" font-family="Times New Roman,serif" font-size="14.00">Standing Heavy Kick</text>
</g>
<!-- Light Sonic Boom (Perfect)&#45;&gt;Standing Heavy Kick -->
<g id="edge57" class="edge">
<title>Light Sonic Boom (Perfect)&#45;&gt;Standing Heavy Kick</title>
<path fill="none" stroke="black" d="M375.02,-575.7C373.73,-568.15 372.18,-559.12 370.73,-550.68"/>
<polygon fill="black" stroke="black" points="374.06,-550.37 368.92,-541.1 367.16,-551.55 374.06,-550.37"/>
</g>
<!-- Standing Heavy Kick&#45;&gt;Crossfire Somersault -->
<g id="edge58" class="edge">
<title>Standing Heavy Kick&#45;&gt;Crossfire Somersault</title>
<path fill="none" stroke="black" d="M284.64,-514.47C211.49,-507.1 110.93,-492.78 79.99,-468 46.42,-441.11 41.99,-422.01 41.99,-379 41.99,-379 41.99,-379 41.99,-305 41.99,-264.55 47.19,-254.02 60.99,-216 64.22,-207.1 68.69,-197.83 73.11,-189.58"/>
<polygon fill="black" stroke="black" points="76.58,-191.55 78.4,-181.11 70.47,-188.14 76.58,-191.55"/>
</g>
</g>
</svg>
